%TF.GenerationSoftware,KiCad,Pcbnew,(6.0.7-1)-1*%
%TF.CreationDate,2022-08-17T06:23:28+02:00*%
%TF.ProjectId,plain60-flex-edition,706c6169-6e36-4302-9d66-6c65782d6564,rev?*%
%TF.SameCoordinates,Original*%
%TF.FileFunction,Legend,Top*%
%TF.FilePolarity,Positive*%
%FSLAX46Y46*%
G04 Gerber Fmt 4.6, Leading zero omitted, Abs format (unit mm)*
G04 Created by KiCad (PCBNEW (6.0.7-1)-1) date 2022-08-17 06:23:28*
%MOMM*%
%LPD*%
G01*
G04 APERTURE LIST*
G04 Aperture macros list*
%AMRoundRect*
0 Rectangle with rounded corners*
0 $1 Rounding radius*
0 $2 $3 $4 $5 $6 $7 $8 $9 X,Y pos of 4 corners*
0 Add a 4 corners polygon primitive as box body*
4,1,4,$2,$3,$4,$5,$6,$7,$8,$9,$2,$3,0*
0 Add four circle primitives for the rounded corners*
1,1,$1+$1,$2,$3*
1,1,$1+$1,$4,$5*
1,1,$1+$1,$6,$7*
1,1,$1+$1,$8,$9*
0 Add four rect primitives between the rounded corners*
20,1,$1+$1,$2,$3,$4,$5,0*
20,1,$1+$1,$4,$5,$6,$7,0*
20,1,$1+$1,$6,$7,$8,$9,0*
20,1,$1+$1,$8,$9,$2,$3,0*%
G04 Aperture macros list end*
%ADD10C,0.050000*%
%ADD11C,0.100000*%
%ADD12C,0.150000*%
%ADD13C,1.701800*%
%ADD14C,3.987800*%
%ADD15C,2.286000*%
%ADD16C,3.048000*%
%ADD17O,7.000000X2.500000*%
%ADD18O,5.000000X2.500000*%
%ADD19C,2.000000*%
%ADD20RoundRect,0.250000X-0.350000X-0.625000X0.350000X-0.625000X0.350000X0.625000X-0.350000X0.625000X0*%
%ADD21O,1.200000X1.750000*%
%ADD22C,1.625600*%
%ADD23RoundRect,0.025400X0.736600X0.736600X-0.736600X0.736600X-0.736600X-0.736600X0.736600X-0.736600X0*%
%ADD24C,0.600000*%
G04 APERTURE END LIST*
D10*
X58080048Y-4584251D02*
X57841953Y-4584251D01*
X57818144Y-4822346D01*
X57841953Y-4798537D01*
X57889572Y-4774727D01*
X58008620Y-4774727D01*
X58056239Y-4798537D01*
X58080048Y-4822346D01*
X58103858Y-4869965D01*
X58103858Y-4989013D01*
X58080048Y-5036632D01*
X58056239Y-5060441D01*
X58008620Y-5084251D01*
X57889572Y-5084251D01*
X57841953Y-5060441D01*
X57818144Y-5036632D01*
X58246715Y-4584251D02*
X58413382Y-5084251D01*
X58580048Y-4584251D01*
X53881191Y-5084251D02*
X53881191Y-4584251D01*
X54214525Y-4584251D02*
X54309763Y-4584251D01*
X54357382Y-4608061D01*
X54405001Y-4655680D01*
X54428810Y-4750918D01*
X54428810Y-4917584D01*
X54405001Y-5012822D01*
X54357382Y-5060441D01*
X54309763Y-5084251D01*
X54214525Y-5084251D01*
X54166906Y-5060441D01*
X54119287Y-5012822D01*
X54095477Y-4917584D01*
X54095477Y-4750918D01*
X54119287Y-4655680D01*
X54166906Y-4608061D01*
X54214525Y-4584251D01*
X54857382Y-4750918D02*
X54857382Y-5084251D01*
X54738334Y-4560441D02*
X54619287Y-4917584D01*
X54928810Y-4917584D01*
X55214525Y-4584251D02*
X55262144Y-4584251D01*
X55309763Y-4608061D01*
X55333572Y-4631870D01*
X55357382Y-4679489D01*
X55381191Y-4774727D01*
X55381191Y-4893775D01*
X55357382Y-4989013D01*
X55333572Y-5036632D01*
X55309763Y-5060441D01*
X55262144Y-5084251D01*
X55214525Y-5084251D01*
X55166906Y-5060441D01*
X55143096Y-5036632D01*
X55119287Y-4989013D01*
X55095477Y-4893775D01*
X55095477Y-4774727D01*
X55119287Y-4679489D01*
X55143096Y-4631870D01*
X55166906Y-4608061D01*
X55214525Y-4584251D01*
D11*
X76895096Y-5147013D02*
X76704620Y-5147013D01*
X76685572Y-5337489D01*
X76704620Y-5318441D01*
X76742715Y-5299394D01*
X76837953Y-5299394D01*
X76876048Y-5318441D01*
X76895096Y-5337489D01*
X76914144Y-5375584D01*
X76914144Y-5470822D01*
X76895096Y-5508918D01*
X76876048Y-5527965D01*
X76837953Y-5547013D01*
X76742715Y-5547013D01*
X76704620Y-5527965D01*
X76685572Y-5508918D01*
X77028429Y-5147013D02*
X77161763Y-5547013D01*
X77295096Y-5147013D01*
D10*
X56016334Y-4608061D02*
X55968715Y-4584251D01*
X55897287Y-4584251D01*
X55825858Y-4608061D01*
X55778239Y-4655680D01*
X55754429Y-4703299D01*
X55730620Y-4798537D01*
X55730620Y-4869965D01*
X55754429Y-4965203D01*
X55778239Y-5012822D01*
X55825858Y-5060441D01*
X55897287Y-5084251D01*
X55944906Y-5084251D01*
X56016334Y-5060441D01*
X56040144Y-5036632D01*
X56040144Y-4869965D01*
X55944906Y-4869965D01*
X56254429Y-5084251D02*
X56254429Y-4584251D01*
X56540144Y-5084251D01*
X56540144Y-4584251D01*
X56778239Y-5084251D02*
X56778239Y-4584251D01*
X56897287Y-4584251D01*
X56968715Y-4608061D01*
X57016334Y-4655680D01*
X57040144Y-4703299D01*
X57063953Y-4798537D01*
X57063953Y-4869965D01*
X57040144Y-4965203D01*
X57016334Y-5012822D01*
X56968715Y-5060441D01*
X56897287Y-5084251D01*
X56778239Y-5084251D01*
D11*
X72824810Y-5547013D02*
X72824810Y-5147013D01*
X73091477Y-5147013D02*
X73167667Y-5147013D01*
X73205763Y-5166061D01*
X73243858Y-5204156D01*
X73262906Y-5280346D01*
X73262906Y-5413680D01*
X73243858Y-5489870D01*
X73205763Y-5527965D01*
X73167667Y-5547013D01*
X73091477Y-5547013D01*
X73053382Y-5527965D01*
X73015287Y-5489870D01*
X72996239Y-5413680D01*
X72996239Y-5280346D01*
X73015287Y-5204156D01*
X73053382Y-5166061D01*
X73091477Y-5147013D01*
X73605763Y-5280346D02*
X73605763Y-5547013D01*
X73510525Y-5127965D02*
X73415287Y-5413680D01*
X73662906Y-5413680D01*
X73891477Y-5147013D02*
X73929572Y-5147013D01*
X73967667Y-5166061D01*
X73986715Y-5185108D01*
X74005763Y-5223203D01*
X74024810Y-5299394D01*
X74024810Y-5394632D01*
X74005763Y-5470822D01*
X73986715Y-5508918D01*
X73967667Y-5527965D01*
X73929572Y-5547013D01*
X73891477Y-5547013D01*
X73853382Y-5527965D01*
X73834334Y-5508918D01*
X73815287Y-5470822D01*
X73796239Y-5394632D01*
X73796239Y-5299394D01*
X73815287Y-5223203D01*
X73834334Y-5185108D01*
X73853382Y-5166061D01*
X73891477Y-5147013D01*
X74888525Y-5166061D02*
X74850429Y-5147013D01*
X74793287Y-5147013D01*
X74736144Y-5166061D01*
X74698048Y-5204156D01*
X74679001Y-5242251D01*
X74659953Y-5318441D01*
X74659953Y-5375584D01*
X74679001Y-5451775D01*
X74698048Y-5489870D01*
X74736144Y-5527965D01*
X74793287Y-5547013D01*
X74831382Y-5547013D01*
X74888525Y-5527965D01*
X74907572Y-5508918D01*
X74907572Y-5375584D01*
X74831382Y-5375584D01*
X75079001Y-5547013D02*
X75079001Y-5147013D01*
X75307572Y-5547013D01*
X75307572Y-5147013D01*
X75498048Y-5547013D02*
X75498048Y-5147013D01*
X75593287Y-5147013D01*
X75650429Y-5166061D01*
X75688525Y-5204156D01*
X75707572Y-5242251D01*
X75726620Y-5318441D01*
X75726620Y-5375584D01*
X75707572Y-5451775D01*
X75688525Y-5489870D01*
X75650429Y-5527965D01*
X75593287Y-5547013D01*
X75498048Y-5547013D01*
D12*
%TO.C,J1*%
X56185240Y-8020457D02*
X56185240Y-8734743D01*
X56137621Y-8877600D01*
X56042383Y-8972838D01*
X55899526Y-9020457D01*
X55804288Y-9020457D01*
X57185240Y-9020457D02*
X56613812Y-9020457D01*
X56899526Y-9020457D02*
X56899526Y-8020457D01*
X56804288Y-8163315D01*
X56709050Y-8258553D01*
X56613812Y-8306172D01*
%TD*%
%LPC*%
D13*
%TO.C,K19*%
X71120000Y-28575000D03*
X81280000Y-28575000D03*
D14*
X76200000Y-28575000D03*
D15*
X78740000Y-23495000D03*
X72390000Y-26035000D03*
%TD*%
D13*
%TO.C,K20*%
X90170000Y-28575000D03*
X100330000Y-28575000D03*
D14*
X95250000Y-28575000D03*
D15*
X97790000Y-23495000D03*
X91440000Y-26035000D03*
%TD*%
D13*
%TO.C,K23*%
X157480000Y-28575000D03*
X147320000Y-28575000D03*
D14*
X152400000Y-28575000D03*
D15*
X154940000Y-23495000D03*
X148590000Y-26035000D03*
%TD*%
D14*
%TO.C,K24*%
X171450000Y-28575000D03*
D13*
X176530000Y-28575000D03*
X166370000Y-28575000D03*
D15*
X173990000Y-23495000D03*
X167640000Y-26035000D03*
%TD*%
D14*
%TO.C,K17*%
X38100000Y-28575000D03*
D13*
X33020000Y-28575000D03*
X43180000Y-28575000D03*
D15*
X40640000Y-23495000D03*
X34290000Y-26035000D03*
%TD*%
D13*
%TO.C,K22*%
X128270000Y-28575000D03*
X138430000Y-28575000D03*
D14*
X133350000Y-28575000D03*
D15*
X135890000Y-23495000D03*
X129540000Y-26035000D03*
%TD*%
D14*
%TO.C,K21*%
X114300000Y-28575000D03*
D13*
X109220000Y-28575000D03*
X119380000Y-28575000D03*
D15*
X116840000Y-23495000D03*
X110490000Y-26035000D03*
%TD*%
D13*
%TO.C,K18*%
X52070000Y-28575000D03*
X62230000Y-28575000D03*
D14*
X57150000Y-28575000D03*
D15*
X59690000Y-23495000D03*
X53340000Y-26035000D03*
%TD*%
%TO.C,K16*%
X10477500Y-26035000D03*
X16827500Y-23495000D03*
D13*
X19367500Y-28575000D03*
X9207500Y-28575000D03*
D14*
X14287500Y-28575000D03*
%TD*%
D16*
%TO.C,K15*%
X254762000Y-2540000D03*
D14*
X266700000Y-9525000D03*
D16*
X278638000Y-2540000D03*
D13*
X261620000Y-9525000D03*
D14*
X278638000Y-17780000D03*
X254762000Y-17780000D03*
D13*
X271780000Y-9525000D03*
D15*
X269240000Y-4445000D03*
X262890000Y-6985000D03*
%TD*%
D13*
%TO.C,K8*%
X147955000Y-9525000D03*
X137795000Y-9525000D03*
D14*
X142875000Y-9525000D03*
D15*
X145415000Y-4445000D03*
X139065000Y-6985000D03*
%TD*%
D13*
%TO.C,K10*%
X186055000Y-9525000D03*
X175895000Y-9525000D03*
D14*
X180975000Y-9525000D03*
D15*
X183515000Y-4445000D03*
X177165000Y-6985000D03*
%TD*%
D14*
%TO.C,K14*%
X257175000Y-9525000D03*
D13*
X252095000Y-9525000D03*
X262255000Y-9525000D03*
D15*
X259715000Y-4445000D03*
X253365000Y-6985000D03*
%TD*%
D13*
%TO.C,K5*%
X80645000Y-9525000D03*
D14*
X85725000Y-9525000D03*
D13*
X90805000Y-9525000D03*
D15*
X88265000Y-4445000D03*
X81915000Y-6985000D03*
%TD*%
D13*
%TO.C,K13*%
X233045000Y-9525000D03*
D14*
X238125000Y-9525000D03*
D13*
X243205000Y-9525000D03*
D15*
X240665000Y-4445000D03*
X234315000Y-6985000D03*
%TD*%
D14*
%TO.C,K12*%
X219075000Y-9525000D03*
D13*
X224155000Y-9525000D03*
X213995000Y-9525000D03*
D15*
X221615000Y-4445000D03*
X215265000Y-6985000D03*
%TD*%
D13*
%TO.C,K11*%
X205105000Y-9525000D03*
D14*
X200025000Y-9525000D03*
D13*
X194945000Y-9525000D03*
D15*
X202565000Y-4445000D03*
X196215000Y-6985000D03*
%TD*%
D13*
%TO.C,K9*%
X167005000Y-9525000D03*
X156845000Y-9525000D03*
D14*
X161925000Y-9525000D03*
D15*
X164465000Y-4445000D03*
X158115000Y-6985000D03*
%TD*%
D13*
%TO.C,K7*%
X128905000Y-9525000D03*
D14*
X123825000Y-9525000D03*
D13*
X118745000Y-9525000D03*
D15*
X126365000Y-4445000D03*
X120015000Y-6985000D03*
%TD*%
D14*
%TO.C,K6*%
X104775000Y-9525000D03*
D13*
X99695000Y-9525000D03*
X109855000Y-9525000D03*
D15*
X107315000Y-4445000D03*
X100965000Y-6985000D03*
%TD*%
D13*
%TO.C,K4*%
X71755000Y-9525000D03*
D14*
X66675000Y-9525000D03*
D13*
X61595000Y-9525000D03*
D15*
X69215000Y-4445000D03*
X62865000Y-6985000D03*
%TD*%
D13*
%TO.C,K2*%
X33655000Y-9525000D03*
X23495000Y-9525000D03*
D14*
X28575000Y-9525000D03*
D15*
X31115000Y-4445000D03*
X24765000Y-6985000D03*
%TD*%
D14*
%TO.C,K1*%
X9525000Y-9525000D03*
D13*
X4445000Y-9525000D03*
X14605000Y-9525000D03*
D15*
X12065000Y-4445000D03*
X5715000Y-6985000D03*
%TD*%
D14*
%TO.C,K3*%
X47625000Y-9525000D03*
D13*
X42545000Y-9525000D03*
X52705000Y-9525000D03*
D15*
X50165000Y-4445000D03*
X43815000Y-6985000D03*
%TD*%
D13*
%TO.C,K62-1*%
X43180000Y-85725000D03*
D14*
X38100000Y-85725000D03*
D13*
X33020000Y-85725000D03*
D15*
X40640000Y-80645000D03*
X34290000Y-83185000D03*
%TD*%
D13*
%TO.C,K71*%
X197326250Y-85725000D03*
D14*
X202406250Y-85725000D03*
D13*
X207486250Y-85725000D03*
D15*
X204946250Y-80645000D03*
X198596250Y-83185000D03*
%TD*%
D13*
%TO.C,K53*%
X152717500Y-66675000D03*
X142557500Y-66675000D03*
D14*
X147637500Y-66675000D03*
D15*
X150177500Y-61595000D03*
X143827500Y-64135000D03*
%TD*%
D13*
%TO.C,K58-1*%
X244951460Y-66675056D03*
X255111460Y-66675056D03*
D14*
X250031460Y-66675056D03*
D15*
X252571460Y-61595056D03*
X246221460Y-64135056D03*
%TD*%
D14*
%TO.C,K57*%
X223837500Y-66675000D03*
D13*
X228917500Y-66675000D03*
X218757500Y-66675000D03*
D15*
X226377500Y-61595000D03*
X220027500Y-64135000D03*
%TD*%
D13*
%TO.C,K54*%
X171767500Y-66675000D03*
D14*
X166687500Y-66675000D03*
D13*
X161607500Y-66675000D03*
D15*
X169227500Y-61595000D03*
X162877500Y-64135000D03*
%TD*%
D13*
%TO.C,K56*%
X209867500Y-66675000D03*
D14*
X204787500Y-66675000D03*
D13*
X199707500Y-66675000D03*
D15*
X207327500Y-61595000D03*
X200977500Y-64135000D03*
%TD*%
D13*
%TO.C,K52*%
X123507500Y-66675000D03*
D14*
X128587500Y-66675000D03*
D13*
X133667500Y-66675000D03*
D15*
X131127500Y-61595000D03*
X124777500Y-64135000D03*
%TD*%
D13*
%TO.C,K55*%
X190817500Y-66675000D03*
D14*
X185737500Y-66675000D03*
D13*
X180657500Y-66675000D03*
D15*
X188277500Y-61595000D03*
X181927500Y-64135000D03*
%TD*%
D13*
%TO.C,K61-1*%
X19367500Y-85725000D03*
X9207500Y-85725000D03*
D14*
X14287500Y-85725000D03*
D15*
X16827500Y-80645000D03*
X10477500Y-83185000D03*
%TD*%
D14*
%TO.C,K15-1*%
X276225000Y-9525000D03*
D13*
X271145000Y-9525000D03*
X281305000Y-9525000D03*
D15*
X278765000Y-4445000D03*
X272415000Y-6985000D03*
%TD*%
D13*
%TO.C,K74*%
X268763750Y-85725072D03*
X278923750Y-85725072D03*
D14*
X273843750Y-85725072D03*
D15*
X276383750Y-80645072D03*
X270033750Y-83185072D03*
%TD*%
D13*
%TO.C,K73*%
X255111250Y-85725000D03*
D14*
X250031250Y-85725000D03*
D13*
X244951250Y-85725000D03*
D15*
X252571250Y-80645000D03*
X246221250Y-83185000D03*
%TD*%
D13*
%TO.C,K28*%
X252730000Y-28575000D03*
X242570000Y-28575000D03*
D14*
X247650000Y-28575000D03*
D15*
X250190000Y-23495000D03*
X243840000Y-26035000D03*
%TD*%
D13*
%TO.C,K48*%
X47307500Y-66675000D03*
D14*
X52387500Y-66675000D03*
D13*
X57467500Y-66675000D03*
D15*
X54927500Y-61595000D03*
X48577500Y-64135000D03*
%TD*%
D13*
%TO.C,K25*%
X195580000Y-28575000D03*
D14*
X190500000Y-28575000D03*
D13*
X185420000Y-28575000D03*
D15*
X193040000Y-23495000D03*
X186690000Y-26035000D03*
%TD*%
D13*
%TO.C,K36*%
X124142500Y-47625000D03*
D14*
X119062500Y-47625000D03*
D13*
X113982500Y-47625000D03*
D15*
X121602500Y-42545000D03*
X115252500Y-45085000D03*
%TD*%
D13*
%TO.C,K33*%
X66992500Y-47625000D03*
X56832500Y-47625000D03*
D14*
X61912500Y-47625000D03*
D15*
X64452500Y-42545000D03*
X58102500Y-45085000D03*
%TD*%
D13*
%TO.C,K63*%
X54451250Y-85725000D03*
X64611250Y-85725000D03*
D14*
X59531250Y-85725000D03*
D15*
X62071250Y-80645000D03*
X55721250Y-83185000D03*
%TD*%
D16*
%TO.C,K44*%
X252380750Y-54610000D03*
D13*
X269398750Y-47625000D03*
D14*
X276256750Y-39370000D03*
D16*
X276256750Y-54610000D03*
D14*
X264318750Y-47625000D03*
D13*
X259238750Y-47625000D03*
D14*
X252380750Y-39370000D03*
D15*
X266858750Y-42545000D03*
X260508750Y-45085000D03*
%TD*%
D13*
%TO.C,K72*%
X231298750Y-85725000D03*
X221138750Y-85725000D03*
D14*
X226218750Y-85725000D03*
D15*
X228758750Y-80645000D03*
X222408750Y-83185000D03*
%TD*%
D13*
%TO.C,K59*%
X271145000Y-66675000D03*
D14*
X276225000Y-66675000D03*
D13*
X281305000Y-66675000D03*
D15*
X278765000Y-61595000D03*
X272415000Y-64135000D03*
%TD*%
D13*
%TO.C,K39*%
X171132500Y-47625000D03*
X181292500Y-47625000D03*
D14*
X176212500Y-47625000D03*
D15*
X178752500Y-42545000D03*
X172402500Y-45085000D03*
%TD*%
D13*
%TO.C,K61*%
X16986250Y-85725000D03*
D14*
X11906250Y-85725000D03*
D13*
X6826250Y-85725000D03*
D15*
X14446250Y-80645000D03*
X8096250Y-83185000D03*
%TD*%
D14*
%TO.C,K29*%
X271462500Y-28575000D03*
D13*
X266382500Y-28575000D03*
X276542500Y-28575000D03*
D15*
X274002500Y-23495000D03*
X267652500Y-26035000D03*
%TD*%
D13*
%TO.C,K27*%
X223520000Y-28575000D03*
X233680000Y-28575000D03*
D14*
X228600000Y-28575000D03*
D15*
X231140000Y-23495000D03*
X224790000Y-26035000D03*
%TD*%
D13*
%TO.C,K63-1*%
X56832500Y-85725000D03*
D14*
X61912500Y-85725000D03*
D13*
X66992500Y-85725000D03*
D15*
X64452500Y-80645000D03*
X58102500Y-83185000D03*
%TD*%
D13*
%TO.C,K50*%
X85407500Y-66675000D03*
X95567500Y-66675000D03*
D14*
X90487500Y-66675000D03*
D15*
X93027500Y-61595000D03*
X86677500Y-64135000D03*
%TD*%
D13*
%TO.C,K34*%
X86042500Y-47625000D03*
X75882500Y-47625000D03*
D14*
X80962500Y-47625000D03*
D15*
X83502500Y-42545000D03*
X77152500Y-45085000D03*
%TD*%
D14*
%TO.C,K47*%
X33337500Y-66675000D03*
D13*
X38417500Y-66675000D03*
X28257500Y-66675000D03*
D15*
X35877500Y-61595000D03*
X29527500Y-64135000D03*
%TD*%
D14*
%TO.C,K43*%
X252412500Y-47625000D03*
D13*
X257492500Y-47625000D03*
X247332500Y-47625000D03*
D15*
X254952500Y-42545000D03*
X248602500Y-45085000D03*
%TD*%
D14*
%TO.C,K38*%
X157162500Y-47625000D03*
D13*
X162242500Y-47625000D03*
X152082500Y-47625000D03*
D15*
X159702500Y-42545000D03*
X153352500Y-45085000D03*
%TD*%
D13*
%TO.C,K35*%
X94932500Y-47625000D03*
D14*
X100012500Y-47625000D03*
D13*
X105092500Y-47625000D03*
D15*
X102552500Y-42545000D03*
X96202500Y-45085000D03*
%TD*%
D13*
%TO.C,K32*%
X21748750Y-47625000D03*
D14*
X16668750Y-47625000D03*
D13*
X11588750Y-47625000D03*
D15*
X19208750Y-42545000D03*
X12858750Y-45085000D03*
%TD*%
D13*
%TO.C,K40*%
X190182500Y-47625000D03*
D14*
X195262500Y-47625000D03*
D13*
X200342500Y-47625000D03*
D15*
X197802500Y-42545000D03*
X191452500Y-45085000D03*
%TD*%
D16*
%TO.C,K46*%
X33369250Y-59690000D03*
D14*
X33369250Y-74930000D03*
D16*
X9493250Y-59690000D03*
D13*
X16351250Y-66675000D03*
D14*
X21431250Y-66675000D03*
D13*
X26511250Y-66675000D03*
D14*
X9493250Y-74930000D03*
D15*
X23971250Y-61595000D03*
X17621250Y-64135000D03*
%TD*%
D13*
%TO.C,K42*%
X228282500Y-47625000D03*
X238442500Y-47625000D03*
D14*
X233362500Y-47625000D03*
D15*
X235902500Y-42545000D03*
X229552500Y-45085000D03*
%TD*%
D14*
%TO.C,K41*%
X214312500Y-47625000D03*
D13*
X209232500Y-47625000D03*
X219392500Y-47625000D03*
D15*
X216852500Y-42545000D03*
X210502500Y-45085000D03*
%TD*%
D13*
%TO.C,K26*%
X204470000Y-28575000D03*
D14*
X209550000Y-28575000D03*
D13*
X214630000Y-28575000D03*
D15*
X212090000Y-23495000D03*
X205740000Y-26035000D03*
%TD*%
D13*
%TO.C,K37*%
X143192500Y-47625000D03*
X133032500Y-47625000D03*
D14*
X138112500Y-47625000D03*
D15*
X140652500Y-42545000D03*
X134302500Y-45085000D03*
%TD*%
D14*
%TO.C,K51*%
X109537500Y-66675000D03*
D13*
X114617500Y-66675000D03*
X104457500Y-66675000D03*
D15*
X112077500Y-61595000D03*
X105727500Y-64135000D03*
%TD*%
D13*
%TO.C,K73-1*%
X242570000Y-85725000D03*
X252730000Y-85725000D03*
D14*
X247650000Y-85725000D03*
D15*
X250190000Y-80645000D03*
X243840000Y-83185000D03*
%TD*%
D14*
%TO.C,K62*%
X35718750Y-85725000D03*
D13*
X40798750Y-85725000D03*
X30638750Y-85725000D03*
D15*
X38258750Y-80645000D03*
X31908750Y-83185000D03*
%TD*%
D13*
%TO.C,K49*%
X66357500Y-66675000D03*
D14*
X71437500Y-66675000D03*
D13*
X76517500Y-66675000D03*
D15*
X73977500Y-61595000D03*
X67627500Y-64135000D03*
%TD*%
D13*
%TO.C,K72-1*%
X218757500Y-85725000D03*
X228917500Y-85725000D03*
D14*
X223837500Y-85725000D03*
D15*
X226377500Y-80645000D03*
X220027500Y-83185000D03*
%TD*%
D13*
%TO.C,K74-1*%
X276542728Y-85725072D03*
D14*
X271462728Y-85725072D03*
D13*
X266382728Y-85725072D03*
D15*
X274002728Y-80645072D03*
X267652728Y-83185072D03*
%TD*%
D17*
%TO.C,S5*%
X283368988Y-57125000D03*
%TD*%
D14*
%TO.C,K58*%
X247618468Y-74930000D03*
X271494468Y-74930000D03*
D16*
X271494468Y-59690000D03*
D13*
X264636468Y-66675000D03*
X254476468Y-66675000D03*
D14*
X259556468Y-66675000D03*
D16*
X247618468Y-59690000D03*
D15*
X262096468Y-61595000D03*
X255746468Y-64135000D03*
%TD*%
D16*
%TO.C,K67*%
X181006750Y-92710000D03*
X80930750Y-92710000D03*
D13*
X136048750Y-85725000D03*
X125888750Y-85725000D03*
D14*
X181006750Y-77470000D03*
X80930750Y-77470000D03*
X130968750Y-85725000D03*
D15*
X133508750Y-80645000D03*
X127158750Y-83185000D03*
%TD*%
D18*
%TO.C,S8*%
X26625000Y-85725072D03*
%TD*%
%TO.C,S7*%
X142875000Y-37750000D03*
%TD*%
%TO.C,S9*%
X260430000Y-85725072D03*
%TD*%
%TO.C,S2*%
X260425000Y-28227050D03*
%TD*%
%TO.C,S1*%
X25600000Y-28575024D03*
%TD*%
%TO.C,S3*%
X128587608Y-47425040D03*
%TD*%
%TO.C,S6*%
X190500160Y-85525000D03*
%TD*%
D14*
%TO.C,K67-1*%
X85693250Y-77470000D03*
D16*
X85693250Y-92710000D03*
X200056750Y-92710000D03*
D13*
X147955000Y-85725000D03*
D14*
X142875000Y-85725000D03*
D13*
X137795000Y-85725000D03*
D14*
X200056750Y-77470000D03*
D15*
X145415000Y-80645000D03*
X139065000Y-83185000D03*
%TD*%
D13*
%TO.C,K44-1*%
X268763980Y-38100000D03*
D14*
X273843980Y-38100000D03*
D16*
X280828980Y-26162000D03*
D13*
X278923980Y-38100000D03*
D14*
X265588980Y-26162000D03*
X265588980Y-50038000D03*
D16*
X280828980Y-50038000D03*
D15*
X276383980Y-33020000D03*
X270033980Y-35560000D03*
%TD*%
D13*
%TO.C,K31-1*%
X16986250Y-47625000D03*
X6826250Y-47625000D03*
D14*
X11906250Y-47625000D03*
D15*
X14446250Y-42545000D03*
X8096250Y-45085000D03*
%TD*%
D14*
%TO.C,K31*%
X42862500Y-47625000D03*
D13*
X37782500Y-47625000D03*
X47942500Y-47625000D03*
D15*
X45402500Y-42545000D03*
X39052500Y-45085000D03*
%TD*%
D17*
%TO.C,S4*%
X2381252Y-57125000D03*
%TD*%
D19*
%TO.C,H1*%
X4524382Y-36909406D03*
%TD*%
D20*
%TO.C,J1*%
X53518574Y-6018077D03*
D21*
X55518574Y-6018077D03*
X57518574Y-6018077D03*
X59518574Y-6018077D03*
%TD*%
D22*
%TO.C,U1*%
X36478287Y-3080061D03*
X36478287Y-5620061D03*
X36478287Y-8160061D03*
X36478287Y-10700061D03*
X36478287Y-13240061D03*
X36478287Y-15780061D03*
X36478287Y-18320061D03*
X36478287Y-20860061D03*
X36478287Y-23400061D03*
X36478287Y-31020061D03*
X36478287Y-33560061D03*
X36478287Y-36100061D03*
X36478287Y-38640061D03*
X36478287Y-41180061D03*
X36478287Y-43720061D03*
X21238287Y-43720061D03*
X21238287Y-41180061D03*
X21238287Y-38640061D03*
X21238287Y-36100061D03*
X21238287Y-33560061D03*
X21238287Y-31020061D03*
X21238287Y-28480061D03*
X21238287Y-25940061D03*
X21238287Y-23400061D03*
X21238287Y-20860061D03*
X21238287Y-18320061D03*
X21238287Y-15780061D03*
X21238287Y-13240061D03*
X21238287Y-10700061D03*
X21238287Y-8160061D03*
D23*
X21238287Y-5620061D03*
D22*
X21238287Y-3080061D03*
%TD*%
D24*
X47761287Y-2064061D03*
X12963287Y-73184061D03*
X42173287Y-16288061D03*
X75193287Y-8668061D03*
X82305287Y-17050061D03*
X259089287Y-20098061D03*
X14487287Y-58960061D03*
X42173287Y-10954061D03*
X118373287Y-16034061D03*
X255533287Y-23654061D03*
X44459287Y-10954061D03*
X121167287Y-16034061D03*
X17789287Y-12224061D03*
X17789287Y-15272061D03*
X38109406Y-11915634D03*
X12709287Y-16796061D03*
X39887287Y-8160061D03*
X39887287Y-4350061D03*
X41157287Y-5366061D03*
X41781787Y-32544061D03*
X32901715Y-50545741D03*
X30997287Y-8160061D03*
X24647287Y-33306061D03*
X25663287Y-68866061D03*
X23631287Y-88170061D03*
X23631287Y-35592061D03*
X117357287Y-13748061D03*
X23062698Y-4035472D03*
X51825287Y-12732061D03*
X92719287Y-13748061D03*
X2549287Y-19844061D03*
X2549287Y-14764061D03*
X49285287Y-74200061D03*
X92465287Y-7652061D03*
X10677287Y-14510061D03*
X121167287Y-15018061D03*
X10677287Y-12732061D03*
X49285287Y-71152061D03*
X55635287Y-1302061D03*
X51317287Y-9176061D03*
X5851287Y-13748061D03*
X16773287Y-13748061D03*
X8096250Y-64135000D03*
X34045287Y-6890061D03*
X59690000Y-39319845D03*
X39830598Y-43328561D03*
X79117081Y-38159580D03*
X39830598Y-38691673D03*
X73669287Y-16034061D03*
X33537287Y-51848061D03*
X121602500Y-50760253D03*
X31759287Y-18574061D03*
X25409287Y-58452061D03*
X134302500Y-56316497D03*
X30235287Y-23908061D03*
X159702500Y-51038302D03*
X32267287Y-52102061D03*
X31505287Y-53118061D03*
X178216771Y-52605728D03*
X29727287Y-27464061D03*
X196969123Y-52903377D03*
X30489287Y-31782061D03*
X30743287Y-53880061D03*
X26171287Y-34068061D03*
X213042566Y-55879934D03*
X26171287Y-57690061D03*
X232687887Y-55284613D03*
X26933287Y-36354061D03*
X26933287Y-56928061D03*
X27949287Y-38894061D03*
X27949287Y-56166061D03*
X254952500Y-51950767D03*
X28711287Y-55404061D03*
X260508750Y-51553887D03*
X28711287Y-41434061D03*
X29727287Y-54642061D03*
X261133750Y-50640666D03*
X29727287Y-43974061D03*
X42935287Y-13240061D03*
X42935287Y-19590061D03*
X3311287Y-16288061D03*
X3311287Y-20606061D03*
X57159287Y-14764061D03*
X60461287Y-14002061D03*
X159267287Y-12986061D03*
X159191287Y-16872061D03*
X209813287Y-16034061D03*
X209813287Y-13494061D03*
X249437287Y-14002061D03*
X249361287Y-16618061D03*
X257057287Y-23908061D03*
X263915287Y-20606061D03*
X266455287Y-70644061D03*
X266455287Y-64802061D03*
X250199287Y-71152061D03*
X248167287Y-72168061D03*
X205495287Y-70136061D03*
X205495287Y-72168061D03*
X164601287Y-70390061D03*
X164601287Y-72676061D03*
X124215287Y-72676061D03*
X124215287Y-70644061D03*
X91195287Y-70390061D03*
X91195287Y-72676061D03*
X16011287Y-58960061D03*
X17281287Y-74708061D03*
M02*
