M48
; DRILL file {KiCad (6.0.7-1)-1} date 2022 August 17, Wednesday 08:35:13
; FORMAT={-:-/ absolute / inch / decimal}
; #@! TF.CreationDate,2022-08-17T08:35:13+02:00
; #@! TF.GenerationSoftware,Kicad,Pcbnew,(6.0.7-1)-1
; #@! TF.FileFunction,Plated,1,2,PTH
FMAT,2
INCH
; #@! TA.AperFunction,Plated,PTH,ViaDrill
T1C0.0157
; #@! TA.AperFunction,Plated,PTH,ComponentDrill
T2C0.0295
; #@! TA.AperFunction,Plated,PTH,ComponentDrill
T3C0.0354
; #@! TA.AperFunction,Plated,PTH,ComponentDrill
T4C0.0394
; #@! TA.AperFunction,Plated,PTH,ComponentDrill
T5C0.0590
%
G90
G05
T1
X0.1004Y-0.5813
X0.1004Y-0.7813
X0.1304Y-0.6413
X0.1304Y-0.8113
X0.2304Y-0.5413
X0.3187Y-2.525
X0.4204Y-0.5013
X0.4204Y-0.5713
X0.5004Y-0.6613
X0.5104Y-2.8813
X0.5704Y-2.3213
X0.6304Y-2.3213
X0.6604Y-0.5413
X0.6804Y-2.9413
X0.7004Y-0.4813
X0.7004Y-0.6013
X0.908Y-0.1589
X0.9304Y-1.4013
X0.9304Y-3.4713
X0.9704Y-1.3113
X1.0004Y-2.3013
X1.0104Y-2.7113
X1.0304Y-1.3413
X1.0304Y-2.2713
X1.0604Y-1.4313
X1.0604Y-2.2413
X1.1004Y-1.5313
X1.1004Y-2.2113
X1.1304Y-1.6313
X1.1304Y-2.1813
X1.1704Y-1.0813
X1.1704Y-1.7313
X1.1704Y-2.1513
X1.1904Y-0.9413
X1.2004Y-1.2513
X1.2104Y-2.1213
X1.2204Y-0.3213
X1.2404Y-2.0913
X1.2504Y-0.7313
X1.2704Y-2.0513
X1.2953Y-1.99
X1.3204Y-2.0413
X1.3404Y-0.2713
X1.5004Y-0.4691
X1.5681Y-1.5233
X1.5681Y-1.7058
X1.5704Y-0.1713
X1.5704Y-0.3213
X1.6204Y-0.2113
X1.645Y-1.2813
X1.6604Y-0.4313
X1.6604Y-0.6413
X1.6904Y-0.5213
X1.6904Y-0.7713
X1.7504Y-0.4313
X1.8804Y-0.0813
X1.9404Y-2.8013
X1.9404Y-2.9213
X2.0204Y-0.3613
X2.0404Y-0.5013
X2.1904Y-0.0513
X2.2504Y-0.5813
X2.35Y-1.548
X2.3804Y-0.5513
X2.9004Y-0.6313
X2.9604Y-0.3413
X3.1148Y-1.5023
X3.2404Y-0.6713
X3.5904Y-2.7713
X3.5904Y-2.8613
X3.6404Y-0.3013
X3.6504Y-0.5413
X4.6204Y-0.5413
X4.6604Y-0.6313
X4.7704Y-0.5913
X4.7704Y-0.6313
X4.7875Y-1.9984
X4.8904Y-2.7813
X4.8904Y-2.8613
X5.2875Y-2.2172
X6.2674Y-0.6643
X6.2704Y-0.5113
X6.2875Y-2.0094
X6.4804Y-2.7713
X6.4804Y-2.8613
X7.0164Y-2.0711
X7.7547Y-2.0828
X8.0904Y-2.7613
X8.0904Y-2.8413
X8.2604Y-0.5313
X8.2604Y-0.6313
X8.3875Y-2.2
X9.1609Y-2.1766
X9.7704Y-2.8413
X9.8174Y-0.6543
X9.8204Y-0.5513
X9.8504Y-2.8013
X10.0375Y-2.0453
X10.0604Y-0.9313
X10.1204Y-0.9413
X10.2004Y-0.7913
X10.2562Y-2.0297
X10.2809Y-1.9937
X10.3904Y-0.8113
X10.4904Y-2.5513
X10.4904Y-2.7813
T2
X2.107Y-0.2369
X2.1858Y-0.2369
X2.2645Y-0.2369
X2.3433Y-0.2369
T3
X0.8362Y-0.1213
X0.8362Y-0.2213
X0.8362Y-0.3213
X0.8362Y-0.4213
X0.8362Y-0.5213
X0.8362Y-0.6213
X0.8362Y-0.7213
X0.8362Y-0.8213
X0.8362Y-0.9213
X0.8362Y-1.0213
X0.8362Y-1.1213
X0.8362Y-1.2213
X0.8362Y-1.3213
X0.8362Y-1.4213
X0.8362Y-1.5213
X0.8362Y-1.6213
X0.8362Y-1.7213
X1.4362Y-0.1213
X1.4362Y-0.2213
X1.4362Y-0.3213
X1.4362Y-0.4213
X1.4362Y-0.5213
X1.4362Y-0.6213
X1.4362Y-0.7213
X1.4362Y-0.8213
X1.4362Y-0.9213
X1.4362Y-1.2213
X1.4362Y-1.3213
X1.4362Y-1.4213
X1.4362Y-1.5213
X1.4362Y-1.6213
X1.4362Y-1.7213
T4
X0.1781Y-1.4531
T5
X0.225Y-0.275
X0.3187Y-1.775
X0.3187Y-3.275
X0.4125Y-1.025
X0.4125Y-3.275
X0.475Y-0.175
X0.5062Y-1.775
X0.5687Y-1.675
X0.5687Y-3.175
X0.6625Y-0.925
X0.6625Y-3.175
X0.6937Y-2.525
X0.7562Y-1.675
X0.9437Y-2.425
X0.975Y-0.275
X1.1625Y-2.525
X1.225Y-0.175
X1.2562Y-3.275
X1.35Y-1.025
X1.35Y-3.275
X1.4125Y-2.425
X1.5062Y-3.175
X1.5375Y-1.775
X1.6Y-0.925
X1.6Y-3.175
X1.725Y-0.275
X1.7875Y-1.675
X1.9125Y-2.525
X1.975Y-0.175
X2.1Y-1.025
X2.1625Y-2.425
X2.1938Y-3.275
X2.2875Y-1.775
X2.2875Y-3.275
X2.35Y-0.925
X2.4438Y-3.175
X2.475Y-0.275
X2.5375Y-1.675
X2.5375Y-3.175
X2.6625Y-2.525
X2.725Y-0.175
X2.85Y-1.025
X2.9125Y-2.425
X3.0375Y-1.775
X3.1Y-0.925
X3.225Y-0.275
X3.2875Y-1.675
X3.4125Y-2.525
X3.475Y-0.175
X3.6Y-1.025
X3.6625Y-2.425
X3.7875Y-1.775
X3.85Y-0.925
X3.975Y-0.275
X4.0375Y-1.675
X4.1625Y-2.525
X4.225Y-0.175
X4.35Y-1.025
X4.4125Y-2.425
X4.5375Y-1.775
X4.6Y-0.925
X4.725Y-0.275
X4.7875Y-1.675
X4.9125Y-2.525
X4.975Y-0.175
X5.0062Y-3.275
X5.1Y-1.025
X5.1625Y-2.425
X5.2562Y-3.175
X5.2875Y-1.775
X5.35Y-0.925
X5.475Y-0.275
X5.475Y-3.275
X5.5375Y-1.675
X5.6625Y-2.525
X5.725Y-0.175
X5.725Y-3.175
X5.85Y-1.025
X5.9125Y-2.425
X6.0375Y-1.775
X6.1Y-0.925
X6.225Y-0.275
X6.2875Y-1.675
X6.4125Y-2.525
X6.475Y-0.175
X6.6Y-1.025
X6.6625Y-2.425
X6.7875Y-1.775
X6.85Y-0.925
X6.975Y-0.275
X7.0375Y-1.675
X7.1625Y-2.525
X7.225Y-0.175
X7.35Y-1.025
X7.4125Y-2.425
X7.5375Y-1.775
X7.6Y-0.925
X7.725Y-0.275
X7.7875Y-1.675
X7.8187Y-3.275
X7.9125Y-2.525
X7.975Y-0.175
X8.0687Y-3.175
X8.1Y-1.025
X8.1625Y-2.425
X8.2875Y-1.775
X8.35Y-0.925
X8.475Y-0.275
X8.5375Y-1.675
X8.6625Y-2.525
X8.6625Y-3.275
X8.725Y-0.175
X8.7562Y-3.275
X8.85Y-1.025
X8.9125Y-2.425
X8.9125Y-3.175
X9.0062Y-3.175
X9.0375Y-1.775
X9.1Y-0.925
X9.225Y-0.275
X9.2875Y-1.675
X9.475Y-0.175
X9.6Y-1.025
X9.6Y-3.275
X9.6937Y-3.275
X9.6938Y-2.525
X9.7875Y-1.775
X9.85Y-0.925
X9.85Y-3.175
X9.9437Y-3.175
X9.9438Y-2.425
X9.975Y-0.275
X10.0375Y-1.675
X10.0688Y-2.525
X10.225Y-0.175
X10.2562Y-1.775
X10.3188Y-2.425
X10.35Y-0.275
X10.5062Y-1.675
X10.5375Y-1.025
X10.5375Y-3.275
X10.6Y-0.175
X10.6312Y-3.275
X10.6313Y-1.4
X10.725Y-0.275
X10.725Y-2.525
X10.7875Y-0.925
X10.7875Y-3.175
X10.8812Y-3.175
X10.8813Y-1.3
X10.975Y-0.175
X10.975Y-2.425
T0
M30
