%TF.GenerationSoftware,KiCad,Pcbnew,(6.0.7-1)-1*%
%TF.CreationDate,2022-08-17T08:35:13+02:00*%
%TF.ProjectId,plain60-flex-edition,706c6169-6e36-4302-9d66-6c65782d6564,rev?*%
%TF.SameCoordinates,Original*%
%TF.FileFunction,Soldermask,Bot*%
%TF.FilePolarity,Negative*%
%FSLAX46Y46*%
G04 Gerber Fmt 4.6, Leading zero omitted, Abs format (unit mm)*
G04 Created by KiCad (PCBNEW (6.0.7-1)-1) date 2022-08-17 08:35:13*
%MOMM*%
%LPD*%
G01*
G04 APERTURE LIST*
G04 Aperture macros list*
%AMRoundRect*
0 Rectangle with rounded corners*
0 $1 Rounding radius*
0 $2 $3 $4 $5 $6 $7 $8 $9 X,Y pos of 4 corners*
0 Add a 4 corners polygon primitive as box body*
4,1,4,$2,$3,$4,$5,$6,$7,$8,$9,$2,$3,0*
0 Add four circle primitives for the rounded corners*
1,1,$1+$1,$2,$3*
1,1,$1+$1,$4,$5*
1,1,$1+$1,$6,$7*
1,1,$1+$1,$8,$9*
0 Add four rect primitives between the rounded corners*
20,1,$1+$1,$2,$3,$4,$5,0*
20,1,$1+$1,$4,$5,$6,$7,0*
20,1,$1+$1,$6,$7,$8,$9,0*
20,1,$1+$1,$8,$9,$2,$3,0*%
G04 Aperture macros list end*
%ADD10C,1.701800*%
%ADD11C,3.987800*%
%ADD12C,2.286000*%
%ADD13C,3.048000*%
%ADD14O,7.000000X2.500000*%
%ADD15O,5.000000X2.500000*%
%ADD16R,1.400000X1.200000*%
%ADD17C,2.000000*%
%ADD18R,1.200000X1.400000*%
%ADD19R,1.500000X1.000000*%
%ADD20RoundRect,0.250000X-0.350000X-0.625000X0.350000X-0.625000X0.350000X0.625000X-0.350000X0.625000X0*%
%ADD21O,1.200000X1.750000*%
%ADD22C,1.625600*%
%ADD23RoundRect,0.025400X0.736600X0.736600X-0.736600X0.736600X-0.736600X-0.736600X0.736600X-0.736600X0*%
%ADD24C,0.600000*%
G04 APERTURE END LIST*
D10*
%TO.C,K19*%
X71120000Y-28575000D03*
X81280000Y-28575000D03*
D11*
X76200000Y-28575000D03*
D12*
X78740000Y-23495000D03*
X72390000Y-26035000D03*
%TD*%
D10*
%TO.C,K20*%
X90170000Y-28575000D03*
X100330000Y-28575000D03*
D11*
X95250000Y-28575000D03*
D12*
X97790000Y-23495000D03*
X91440000Y-26035000D03*
%TD*%
D10*
%TO.C,K23*%
X157480000Y-28575000D03*
X147320000Y-28575000D03*
D11*
X152400000Y-28575000D03*
D12*
X154940000Y-23495000D03*
X148590000Y-26035000D03*
%TD*%
D11*
%TO.C,K24*%
X171450000Y-28575000D03*
D10*
X176530000Y-28575000D03*
X166370000Y-28575000D03*
D12*
X173990000Y-23495000D03*
X167640000Y-26035000D03*
%TD*%
D11*
%TO.C,K17*%
X38100000Y-28575000D03*
D10*
X33020000Y-28575000D03*
X43180000Y-28575000D03*
D12*
X40640000Y-23495000D03*
X34290000Y-26035000D03*
%TD*%
D10*
%TO.C,K22*%
X128270000Y-28575000D03*
X138430000Y-28575000D03*
D11*
X133350000Y-28575000D03*
D12*
X135890000Y-23495000D03*
X129540000Y-26035000D03*
%TD*%
D11*
%TO.C,K21*%
X114300000Y-28575000D03*
D10*
X109220000Y-28575000D03*
X119380000Y-28575000D03*
D12*
X116840000Y-23495000D03*
X110490000Y-26035000D03*
%TD*%
D10*
%TO.C,K18*%
X52070000Y-28575000D03*
X62230000Y-28575000D03*
D11*
X57150000Y-28575000D03*
D12*
X59690000Y-23495000D03*
X53340000Y-26035000D03*
%TD*%
D11*
%TO.C,K16*%
X14287500Y-28575000D03*
D10*
X9207500Y-28575000D03*
X19367500Y-28575000D03*
D12*
X16827500Y-23495000D03*
X10477500Y-26035000D03*
%TD*%
D13*
%TO.C,K15*%
X254762000Y-2540000D03*
D11*
X266700000Y-9525000D03*
D13*
X278638000Y-2540000D03*
D10*
X261620000Y-9525000D03*
D11*
X278638000Y-17780000D03*
X254762000Y-17780000D03*
D10*
X271780000Y-9525000D03*
D12*
X269240000Y-4445000D03*
X262890000Y-6985000D03*
%TD*%
D10*
%TO.C,K8*%
X147955000Y-9525000D03*
X137795000Y-9525000D03*
D11*
X142875000Y-9525000D03*
D12*
X145415000Y-4445000D03*
X139065000Y-6985000D03*
%TD*%
D10*
%TO.C,K10*%
X186055000Y-9525000D03*
X175895000Y-9525000D03*
D11*
X180975000Y-9525000D03*
D12*
X183515000Y-4445000D03*
X177165000Y-6985000D03*
%TD*%
D11*
%TO.C,K14*%
X257175000Y-9525000D03*
D10*
X252095000Y-9525000D03*
X262255000Y-9525000D03*
D12*
X259715000Y-4445000D03*
X253365000Y-6985000D03*
%TD*%
D10*
%TO.C,K5*%
X80645000Y-9525000D03*
D11*
X85725000Y-9525000D03*
D10*
X90805000Y-9525000D03*
D12*
X88265000Y-4445000D03*
X81915000Y-6985000D03*
%TD*%
D10*
%TO.C,K13*%
X233045000Y-9525000D03*
D11*
X238125000Y-9525000D03*
D10*
X243205000Y-9525000D03*
D12*
X240665000Y-4445000D03*
X234315000Y-6985000D03*
%TD*%
D11*
%TO.C,K12*%
X219075000Y-9525000D03*
D10*
X224155000Y-9525000D03*
X213995000Y-9525000D03*
D12*
X221615000Y-4445000D03*
X215265000Y-6985000D03*
%TD*%
D10*
%TO.C,K11*%
X205105000Y-9525000D03*
D11*
X200025000Y-9525000D03*
D10*
X194945000Y-9525000D03*
D12*
X202565000Y-4445000D03*
X196215000Y-6985000D03*
%TD*%
D10*
%TO.C,K9*%
X167005000Y-9525000D03*
X156845000Y-9525000D03*
D11*
X161925000Y-9525000D03*
D12*
X164465000Y-4445000D03*
X158115000Y-6985000D03*
%TD*%
D10*
%TO.C,K7*%
X128905000Y-9525000D03*
D11*
X123825000Y-9525000D03*
D10*
X118745000Y-9525000D03*
D12*
X126365000Y-4445000D03*
X120015000Y-6985000D03*
%TD*%
D11*
%TO.C,K6*%
X104775000Y-9525000D03*
D10*
X99695000Y-9525000D03*
X109855000Y-9525000D03*
D12*
X107315000Y-4445000D03*
X100965000Y-6985000D03*
%TD*%
D10*
%TO.C,K4*%
X71755000Y-9525000D03*
D11*
X66675000Y-9525000D03*
D10*
X61595000Y-9525000D03*
D12*
X69215000Y-4445000D03*
X62865000Y-6985000D03*
%TD*%
D10*
%TO.C,K2*%
X33655000Y-9525000D03*
X23495000Y-9525000D03*
D11*
X28575000Y-9525000D03*
D12*
X31115000Y-4445000D03*
X24765000Y-6985000D03*
%TD*%
D11*
%TO.C,K1*%
X9525000Y-9525000D03*
D10*
X4445000Y-9525000D03*
X14605000Y-9525000D03*
D12*
X12065000Y-4445000D03*
X5715000Y-6985000D03*
%TD*%
D11*
%TO.C,K3*%
X47625000Y-9525000D03*
D10*
X42545000Y-9525000D03*
X52705000Y-9525000D03*
D12*
X50165000Y-4445000D03*
X43815000Y-6985000D03*
%TD*%
D10*
%TO.C,K62-1*%
X43180000Y-85725000D03*
D11*
X38100000Y-85725000D03*
D10*
X33020000Y-85725000D03*
D12*
X40640000Y-80645000D03*
X34290000Y-83185000D03*
%TD*%
D10*
%TO.C,K71*%
X197326250Y-85725000D03*
D11*
X202406250Y-85725000D03*
D10*
X207486250Y-85725000D03*
D12*
X204946250Y-80645000D03*
X198596250Y-83185000D03*
%TD*%
D10*
%TO.C,K53*%
X152717500Y-66675000D03*
X142557500Y-66675000D03*
D11*
X147637500Y-66675000D03*
D12*
X150177500Y-61595000D03*
X143827500Y-64135000D03*
%TD*%
D10*
%TO.C,K58-1*%
X244951460Y-66675056D03*
X255111460Y-66675056D03*
D11*
X250031460Y-66675056D03*
D12*
X252571460Y-61595056D03*
X246221460Y-64135056D03*
%TD*%
D11*
%TO.C,K57*%
X223837500Y-66675000D03*
D10*
X228917500Y-66675000D03*
X218757500Y-66675000D03*
D12*
X226377500Y-61595000D03*
X220027500Y-64135000D03*
%TD*%
D10*
%TO.C,K54*%
X171767500Y-66675000D03*
D11*
X166687500Y-66675000D03*
D10*
X161607500Y-66675000D03*
D12*
X169227500Y-61595000D03*
X162877500Y-64135000D03*
%TD*%
D10*
%TO.C,K56*%
X209867500Y-66675000D03*
D11*
X204787500Y-66675000D03*
D10*
X199707500Y-66675000D03*
D12*
X207327500Y-61595000D03*
X200977500Y-64135000D03*
%TD*%
D10*
%TO.C,K52*%
X123507500Y-66675000D03*
D11*
X128587500Y-66675000D03*
D10*
X133667500Y-66675000D03*
D12*
X131127500Y-61595000D03*
X124777500Y-64135000D03*
%TD*%
D10*
%TO.C,K55*%
X190817500Y-66675000D03*
D11*
X185737500Y-66675000D03*
D10*
X180657500Y-66675000D03*
D12*
X188277500Y-61595000D03*
X181927500Y-64135000D03*
%TD*%
D10*
%TO.C,K61-1*%
X19367500Y-85725000D03*
X9207500Y-85725000D03*
D11*
X14287500Y-85725000D03*
D12*
X16827500Y-80645000D03*
X10477500Y-83185000D03*
%TD*%
D11*
%TO.C,K15-1*%
X276225000Y-9525000D03*
D10*
X271145000Y-9525000D03*
X281305000Y-9525000D03*
D12*
X278765000Y-4445000D03*
X272415000Y-6985000D03*
%TD*%
D10*
%TO.C,K74*%
X268763750Y-85725072D03*
X278923750Y-85725072D03*
D11*
X273843750Y-85725072D03*
D12*
X276383750Y-80645072D03*
X270033750Y-83185072D03*
%TD*%
D10*
%TO.C,K73*%
X255111250Y-85725000D03*
D11*
X250031250Y-85725000D03*
D10*
X244951250Y-85725000D03*
D12*
X252571250Y-80645000D03*
X246221250Y-83185000D03*
%TD*%
D10*
%TO.C,K28*%
X252730000Y-28575000D03*
X242570000Y-28575000D03*
D11*
X247650000Y-28575000D03*
D12*
X250190000Y-23495000D03*
X243840000Y-26035000D03*
%TD*%
D10*
%TO.C,K48*%
X47307500Y-66675000D03*
D11*
X52387500Y-66675000D03*
D10*
X57467500Y-66675000D03*
D12*
X54927500Y-61595000D03*
X48577500Y-64135000D03*
%TD*%
D10*
%TO.C,K25*%
X195580000Y-28575000D03*
D11*
X190500000Y-28575000D03*
D10*
X185420000Y-28575000D03*
D12*
X193040000Y-23495000D03*
X186690000Y-26035000D03*
%TD*%
D10*
%TO.C,K36*%
X124142500Y-47625000D03*
D11*
X119062500Y-47625000D03*
D10*
X113982500Y-47625000D03*
D12*
X121602500Y-42545000D03*
X115252500Y-45085000D03*
%TD*%
D10*
%TO.C,K33*%
X66992500Y-47625000D03*
X56832500Y-47625000D03*
D11*
X61912500Y-47625000D03*
D12*
X64452500Y-42545000D03*
X58102500Y-45085000D03*
%TD*%
D10*
%TO.C,K63*%
X54451250Y-85725000D03*
X64611250Y-85725000D03*
D11*
X59531250Y-85725000D03*
D12*
X62071250Y-80645000D03*
X55721250Y-83185000D03*
%TD*%
D13*
%TO.C,K44*%
X252380750Y-54610000D03*
D10*
X269398750Y-47625000D03*
D11*
X276256750Y-39370000D03*
D13*
X276256750Y-54610000D03*
D11*
X264318750Y-47625000D03*
D10*
X259238750Y-47625000D03*
D11*
X252380750Y-39370000D03*
D12*
X266858750Y-42545000D03*
X260508750Y-45085000D03*
%TD*%
D10*
%TO.C,K72*%
X231298750Y-85725000D03*
X221138750Y-85725000D03*
D11*
X226218750Y-85725000D03*
D12*
X228758750Y-80645000D03*
X222408750Y-83185000D03*
%TD*%
D10*
%TO.C,K59*%
X271145000Y-66675000D03*
D11*
X276225000Y-66675000D03*
D10*
X281305000Y-66675000D03*
D12*
X278765000Y-61595000D03*
X272415000Y-64135000D03*
%TD*%
D10*
%TO.C,K39*%
X171132500Y-47625000D03*
X181292500Y-47625000D03*
D11*
X176212500Y-47625000D03*
D12*
X178752500Y-42545000D03*
X172402500Y-45085000D03*
%TD*%
D10*
%TO.C,K61*%
X16986250Y-85725000D03*
D11*
X11906250Y-85725000D03*
D10*
X6826250Y-85725000D03*
D12*
X14446250Y-80645000D03*
X8096250Y-83185000D03*
%TD*%
D11*
%TO.C,K29*%
X271462500Y-28575000D03*
D10*
X266382500Y-28575000D03*
X276542500Y-28575000D03*
D12*
X274002500Y-23495000D03*
X267652500Y-26035000D03*
%TD*%
D10*
%TO.C,K27*%
X223520000Y-28575000D03*
X233680000Y-28575000D03*
D11*
X228600000Y-28575000D03*
D12*
X231140000Y-23495000D03*
X224790000Y-26035000D03*
%TD*%
D10*
%TO.C,K63-1*%
X56832500Y-85725000D03*
D11*
X61912500Y-85725000D03*
D10*
X66992500Y-85725000D03*
D12*
X64452500Y-80645000D03*
X58102500Y-83185000D03*
%TD*%
D10*
%TO.C,K50*%
X85407500Y-66675000D03*
X95567500Y-66675000D03*
D11*
X90487500Y-66675000D03*
D12*
X93027500Y-61595000D03*
X86677500Y-64135000D03*
%TD*%
D10*
%TO.C,K34*%
X86042500Y-47625000D03*
X75882500Y-47625000D03*
D11*
X80962500Y-47625000D03*
D12*
X83502500Y-42545000D03*
X77152500Y-45085000D03*
%TD*%
D11*
%TO.C,K47*%
X33337500Y-66675000D03*
D10*
X38417500Y-66675000D03*
X28257500Y-66675000D03*
D12*
X35877500Y-61595000D03*
X29527500Y-64135000D03*
%TD*%
D11*
%TO.C,K43*%
X252412500Y-47625000D03*
D10*
X257492500Y-47625000D03*
X247332500Y-47625000D03*
D12*
X254952500Y-42545000D03*
X248602500Y-45085000D03*
%TD*%
D11*
%TO.C,K38*%
X157162500Y-47625000D03*
D10*
X162242500Y-47625000D03*
X152082500Y-47625000D03*
D12*
X159702500Y-42545000D03*
X153352500Y-45085000D03*
%TD*%
D10*
%TO.C,K35*%
X94932500Y-47625000D03*
D11*
X100012500Y-47625000D03*
D10*
X105092500Y-47625000D03*
D12*
X102552500Y-42545000D03*
X96202500Y-45085000D03*
%TD*%
D10*
%TO.C,K32*%
X21748750Y-47625000D03*
D11*
X16668750Y-47625000D03*
D10*
X11588750Y-47625000D03*
D12*
X19208750Y-42545000D03*
X12858750Y-45085000D03*
%TD*%
D10*
%TO.C,K40*%
X190182500Y-47625000D03*
D11*
X195262500Y-47625000D03*
D10*
X200342500Y-47625000D03*
D12*
X197802500Y-42545000D03*
X191452500Y-45085000D03*
%TD*%
D13*
%TO.C,K46*%
X33369250Y-59690000D03*
D11*
X33369250Y-74930000D03*
D13*
X9493250Y-59690000D03*
D10*
X16351250Y-66675000D03*
D11*
X21431250Y-66675000D03*
D10*
X26511250Y-66675000D03*
D11*
X9493250Y-74930000D03*
D12*
X23971250Y-61595000D03*
X17621250Y-64135000D03*
%TD*%
D10*
%TO.C,K42*%
X228282500Y-47625000D03*
X238442500Y-47625000D03*
D11*
X233362500Y-47625000D03*
D12*
X235902500Y-42545000D03*
X229552500Y-45085000D03*
%TD*%
D11*
%TO.C,K41*%
X214312500Y-47625000D03*
D10*
X209232500Y-47625000D03*
X219392500Y-47625000D03*
D12*
X216852500Y-42545000D03*
X210502500Y-45085000D03*
%TD*%
D10*
%TO.C,K26*%
X204470000Y-28575000D03*
D11*
X209550000Y-28575000D03*
D10*
X214630000Y-28575000D03*
D12*
X212090000Y-23495000D03*
X205740000Y-26035000D03*
%TD*%
D10*
%TO.C,K37*%
X143192500Y-47625000D03*
X133032500Y-47625000D03*
D11*
X138112500Y-47625000D03*
D12*
X140652500Y-42545000D03*
X134302500Y-45085000D03*
%TD*%
D11*
%TO.C,K51*%
X109537500Y-66675000D03*
D10*
X114617500Y-66675000D03*
X104457500Y-66675000D03*
D12*
X112077500Y-61595000D03*
X105727500Y-64135000D03*
%TD*%
D10*
%TO.C,K73-1*%
X242570000Y-85725000D03*
X252730000Y-85725000D03*
D11*
X247650000Y-85725000D03*
D12*
X250190000Y-80645000D03*
X243840000Y-83185000D03*
%TD*%
D11*
%TO.C,K62*%
X35718750Y-85725000D03*
D10*
X40798750Y-85725000D03*
X30638750Y-85725000D03*
D12*
X38258750Y-80645000D03*
X31908750Y-83185000D03*
%TD*%
D10*
%TO.C,K49*%
X66357500Y-66675000D03*
D11*
X71437500Y-66675000D03*
D10*
X76517500Y-66675000D03*
D12*
X73977500Y-61595000D03*
X67627500Y-64135000D03*
%TD*%
D10*
%TO.C,K72-1*%
X218757500Y-85725000D03*
X228917500Y-85725000D03*
D11*
X223837500Y-85725000D03*
D12*
X226377500Y-80645000D03*
X220027500Y-83185000D03*
%TD*%
D10*
%TO.C,K74-1*%
X276542728Y-85725072D03*
D11*
X271462728Y-85725072D03*
D10*
X266382728Y-85725072D03*
D12*
X274002728Y-80645072D03*
X267652728Y-83185072D03*
%TD*%
D14*
%TO.C,S5*%
X283368988Y-57125000D03*
%TD*%
D11*
%TO.C,K58*%
X247618468Y-74930000D03*
X271494468Y-74930000D03*
D13*
X271494468Y-59690000D03*
D10*
X264636468Y-66675000D03*
X254476468Y-66675000D03*
D11*
X259556468Y-66675000D03*
D13*
X247618468Y-59690000D03*
D12*
X262096468Y-61595000D03*
X255746468Y-64135000D03*
%TD*%
D13*
%TO.C,K67*%
X181006750Y-92710000D03*
X80930750Y-92710000D03*
D10*
X136048750Y-85725000D03*
X125888750Y-85725000D03*
D11*
X181006750Y-77470000D03*
X80930750Y-77470000D03*
X130968750Y-85725000D03*
D12*
X133508750Y-80645000D03*
X127158750Y-83185000D03*
%TD*%
D15*
%TO.C,S8*%
X26625000Y-85725072D03*
%TD*%
%TO.C,S7*%
X142875000Y-37750000D03*
%TD*%
%TO.C,S9*%
X260430000Y-85725072D03*
%TD*%
%TO.C,S2*%
X260425000Y-28227050D03*
%TD*%
%TO.C,S1*%
X25600000Y-28575024D03*
%TD*%
%TO.C,S3*%
X128587608Y-47425040D03*
%TD*%
%TO.C,S6*%
X190500160Y-85525000D03*
%TD*%
D11*
%TO.C,K67-1*%
X85693250Y-77470000D03*
D13*
X85693250Y-92710000D03*
X200056750Y-92710000D03*
D10*
X147955000Y-85725000D03*
D11*
X142875000Y-85725000D03*
D10*
X137795000Y-85725000D03*
D11*
X200056750Y-77470000D03*
D12*
X145415000Y-80645000D03*
X139065000Y-83185000D03*
%TD*%
D10*
%TO.C,K44-1*%
X268763980Y-38100000D03*
D11*
X273843980Y-38100000D03*
D13*
X280828980Y-26162000D03*
D10*
X278923980Y-38100000D03*
D11*
X265588980Y-26162000D03*
X265588980Y-50038000D03*
D13*
X280828980Y-50038000D03*
D12*
X276383980Y-33020000D03*
X270033980Y-35560000D03*
%TD*%
D10*
%TO.C,K31-1*%
X16986250Y-47625000D03*
X6826250Y-47625000D03*
D11*
X11906250Y-47625000D03*
D12*
X14446250Y-42545000D03*
X8096250Y-45085000D03*
%TD*%
D11*
%TO.C,K31*%
X42862500Y-47625000D03*
D10*
X37782500Y-47625000D03*
X47942500Y-47625000D03*
D12*
X45402500Y-42545000D03*
X39052500Y-45085000D03*
%TD*%
D14*
%TO.C,S4*%
X2381252Y-57125000D03*
%TD*%
D16*
%TO.C,D73*%
X239911139Y-88115698D03*
X239911139Y-85715698D03*
%TD*%
%TO.C,D72*%
X216098619Y-88115698D03*
X216098619Y-85715698D03*
%TD*%
%TO.C,D71*%
X210145489Y-88115698D03*
X210145489Y-85715698D03*
%TD*%
%TO.C,D67*%
X150614189Y-88115698D03*
X150614189Y-85715698D03*
%TD*%
%TO.C,D63*%
X69651621Y-88115698D03*
X69651621Y-85715698D03*
%TD*%
%TO.C,D59*%
X268486163Y-69065682D03*
X268486163Y-66665682D03*
%TD*%
%TO.C,D58*%
X242292391Y-69065682D03*
X242292391Y-66665682D03*
%TD*%
%TO.C,D57*%
X216098619Y-69065682D03*
X216098619Y-66665682D03*
%TD*%
%TO.C,D56*%
X197048603Y-69065682D03*
X197048603Y-66665682D03*
%TD*%
%TO.C,D53*%
X139898555Y-69065682D03*
X139898555Y-66665682D03*
%TD*%
%TO.C,D51*%
X101798523Y-69065682D03*
X101798523Y-66665682D03*
%TD*%
%TO.C,D50*%
X82748507Y-69065682D03*
X82748507Y-66665682D03*
%TD*%
%TO.C,D27*%
X220861123Y-30965650D03*
X220861123Y-28565650D03*
%TD*%
%TO.C,D42*%
X225623627Y-50015666D03*
X225623627Y-47615666D03*
%TD*%
%TO.C,D18*%
X49410979Y-30965650D03*
X49410979Y-28565650D03*
%TD*%
%TO.C,D25*%
X182761091Y-30965650D03*
X182761091Y-28565650D03*
%TD*%
%TO.C,D41*%
X206573611Y-50015666D03*
X206573611Y-47615666D03*
%TD*%
%TO.C,D36*%
X111323531Y-50015666D03*
X111323531Y-47615666D03*
%TD*%
%TO.C,D31*%
X53578170Y-50015666D03*
X53578170Y-47615666D03*
%TD*%
%TO.C,D40*%
X187523595Y-50015666D03*
X187523595Y-47615666D03*
%TD*%
%TO.C,D37*%
X145851685Y-50015666D03*
X145851685Y-47615666D03*
%TD*%
%TO.C,D32*%
X50601605Y-50015666D03*
X50601605Y-47615666D03*
%TD*%
%TO.C,D34*%
X73223499Y-50015666D03*
X73223499Y-47615666D03*
%TD*%
%TO.C,D21*%
X106561027Y-30965650D03*
X106561027Y-28565650D03*
%TD*%
%TO.C,D26*%
X201811107Y-30965650D03*
X201811107Y-28565650D03*
%TD*%
%TO.C,D22*%
X125611043Y-30965650D03*
X125611043Y-28565650D03*
%TD*%
%TO.C,D24*%
X163711075Y-30965650D03*
X163711075Y-28565650D03*
%TD*%
%TO.C,D43*%
X244673643Y-50015666D03*
X244673643Y-47615666D03*
%TD*%
%TO.C,D38*%
X149423563Y-50015666D03*
X149423563Y-47615666D03*
%TD*%
%TO.C,D35*%
X92273515Y-50015666D03*
X92273515Y-47615666D03*
%TD*%
%TO.C,D48*%
X60126613Y-69065682D03*
X60126613Y-66665682D03*
%TD*%
%TO.C,D54*%
X158948571Y-69065682D03*
X158948571Y-66665682D03*
%TD*%
%TO.C,D44*%
X272297287Y-52356061D03*
X272297287Y-49956061D03*
%TD*%
%TO.C,D62*%
X51792231Y-88115698D03*
X51792231Y-85715698D03*
%TD*%
%TO.C,D39*%
X168473579Y-50015666D03*
X168473579Y-47615666D03*
%TD*%
%TO.C,D20*%
X87511011Y-30965650D03*
X87511011Y-28565650D03*
%TD*%
%TO.C,D28*%
X239911139Y-30965650D03*
X239911139Y-28565650D03*
%TD*%
%TO.C,D33*%
X69651621Y-50015666D03*
X69651621Y-47615666D03*
%TD*%
%TO.C,D23*%
X144661059Y-30965650D03*
X144661059Y-28565650D03*
%TD*%
%TO.C,D55*%
X177998587Y-69065682D03*
X177998587Y-66665682D03*
%TD*%
%TO.C,D52*%
X120848539Y-69065682D03*
X120848539Y-66665682D03*
%TD*%
%TO.C,D19*%
X68460995Y-30965650D03*
X68460995Y-28565650D03*
%TD*%
%TO.C,D10*%
X173236083Y-11915634D03*
X173236083Y-9515634D03*
%TD*%
%TO.C,D14*%
X249436147Y-11915634D03*
X249436147Y-9515634D03*
%TD*%
%TO.C,D9*%
X154186067Y-11915634D03*
X154186067Y-9515634D03*
%TD*%
%TO.C,D13*%
X230386131Y-11915634D03*
X230386131Y-9515634D03*
%TD*%
%TO.C,D11*%
X192286099Y-11915634D03*
X192286099Y-9515634D03*
%TD*%
%TO.C,D15*%
X245864269Y-11915634D03*
X245864269Y-9515634D03*
%TD*%
%TO.C,D17*%
X45839101Y-30965650D03*
X45839101Y-28565650D03*
%TD*%
%TO.C,D16*%
X4835287Y-29172061D03*
X4835287Y-26772061D03*
%TD*%
%TO.C,D12*%
X211336115Y-11915634D03*
X211336115Y-9515634D03*
%TD*%
%TO.C,D7*%
X116086035Y-11915634D03*
X116086035Y-9515634D03*
%TD*%
%TO.C,D3*%
X55364109Y-11915634D03*
X55364109Y-9515634D03*
%TD*%
%TO.C,D5*%
X77986003Y-11915634D03*
X77986003Y-9515634D03*
%TD*%
%TO.C,D8*%
X135136051Y-11915634D03*
X135136051Y-9515634D03*
%TD*%
%TO.C,D6*%
X97036019Y-11915634D03*
X97036019Y-9515634D03*
%TD*%
%TO.C,D4*%
X58935987Y-11915634D03*
X58935987Y-9515634D03*
%TD*%
D17*
%TO.C,H1*%
X4524382Y-36909406D03*
%TD*%
D16*
%TO.C,D74*%
X233958009Y-88115698D03*
X233958009Y-85715698D03*
%TD*%
%TO.C,D49*%
X63698491Y-69065682D03*
X63698491Y-66665682D03*
%TD*%
%TO.C,D46*%
X41076597Y-69065682D03*
X41076597Y-66665682D03*
%TD*%
%TO.C,D29*%
X236339261Y-30965650D03*
X236339261Y-28565650D03*
%TD*%
D18*
%TO.C,D1*%
X16957287Y-16796061D03*
X14557287Y-16796061D03*
%TD*%
D16*
%TO.C,D47*%
X44648475Y-69065682D03*
X44648475Y-66665682D03*
%TD*%
%TO.C,D2*%
X39885971Y-11915634D03*
X39885971Y-9515634D03*
%TD*%
%TO.C,D61*%
X45839101Y-88115698D03*
X45839101Y-85715698D03*
%TD*%
D19*
%TO.C,LED8*%
X277287287Y-43136061D03*
X277287287Y-46336061D03*
X272387287Y-46336061D03*
X272387287Y-43136061D03*
%TD*%
%TO.C,LED5*%
X171115287Y-12910061D03*
X171115287Y-16110061D03*
X166215287Y-16110061D03*
X166215287Y-12910061D03*
%TD*%
%TO.C,LED12*%
X126845287Y-73768061D03*
X126845287Y-70568061D03*
X131745287Y-70568061D03*
X131745287Y-73768061D03*
%TD*%
%TO.C,LED1*%
X10333287Y-15704061D03*
X10333287Y-18904061D03*
X5433287Y-18904061D03*
X5433287Y-15704061D03*
%TD*%
D20*
%TO.C,J1*%
X53518574Y-6018077D03*
D21*
X55518574Y-6018077D03*
X57518574Y-6018077D03*
X59518574Y-6018077D03*
%TD*%
D19*
%TO.C,LED7*%
X269921287Y-14434061D03*
X269921287Y-17634061D03*
X265021287Y-17634061D03*
X265021287Y-14434061D03*
%TD*%
%TO.C,LED11*%
X167739287Y-73514061D03*
X167739287Y-70314061D03*
X172639287Y-70314061D03*
X172639287Y-73514061D03*
%TD*%
%TO.C,LED15*%
X19985287Y-69806061D03*
X19985287Y-73006061D03*
X15085287Y-73006061D03*
X15085287Y-69806061D03*
%TD*%
%TO.C,LED10*%
X207617287Y-73260061D03*
X207617287Y-70060061D03*
X212517287Y-70060061D03*
X212517287Y-73260061D03*
%TD*%
%TO.C,LED4*%
X127935287Y-13672061D03*
X127935287Y-16872061D03*
X123035287Y-16872061D03*
X123035287Y-13672061D03*
%TD*%
%TO.C,LED6*%
X218867287Y-13418061D03*
X218867287Y-16618061D03*
X213967287Y-16618061D03*
X213967287Y-13418061D03*
%TD*%
%TO.C,LED16*%
X20493287Y-53042061D03*
X20493287Y-56242061D03*
X15593287Y-56242061D03*
X15593287Y-53042061D03*
%TD*%
%TO.C,LED14*%
X52423287Y-74276061D03*
X52423287Y-71076061D03*
X57323287Y-71076061D03*
X57323287Y-74276061D03*
%TD*%
D22*
%TO.C,U1*%
X21238287Y-3080061D03*
D23*
X21238287Y-5620061D03*
D22*
X21238287Y-8160061D03*
X21238287Y-10700061D03*
X21238287Y-13240061D03*
X21238287Y-15780061D03*
X21238287Y-18320061D03*
X21238287Y-20860061D03*
X21238287Y-23400061D03*
X21238287Y-25940061D03*
X21238287Y-28480061D03*
X21238287Y-31020061D03*
X21238287Y-33560061D03*
X21238287Y-36100061D03*
X21238287Y-38640061D03*
X21238287Y-41180061D03*
X21238287Y-43720061D03*
X36478287Y-43720061D03*
X36478287Y-41180061D03*
X36478287Y-38640061D03*
X36478287Y-36100061D03*
X36478287Y-33560061D03*
X36478287Y-31020061D03*
X36478287Y-23400061D03*
X36478287Y-20860061D03*
X36478287Y-18320061D03*
X36478287Y-15780061D03*
X36478287Y-13240061D03*
X36478287Y-10700061D03*
X36478287Y-8160061D03*
X36478287Y-5620061D03*
X36478287Y-3080061D03*
%TD*%
D19*
%TO.C,LED9*%
X260703287Y-76054061D03*
X260703287Y-72854061D03*
X265603287Y-72854061D03*
X265603287Y-76054061D03*
%TD*%
%TO.C,LED13*%
X93317287Y-73514061D03*
X93317287Y-70314061D03*
X98217287Y-70314061D03*
X98217287Y-73514061D03*
%TD*%
%TO.C,LED2*%
X49957287Y-13164061D03*
X49957287Y-16364061D03*
X45057287Y-16364061D03*
X45057287Y-13164061D03*
%TD*%
%TO.C,LED3*%
X89581287Y-13672061D03*
X89581287Y-16872061D03*
X84681287Y-16872061D03*
X84681287Y-13672061D03*
%TD*%
D24*
X47761287Y-2064061D03*
X12963287Y-73184061D03*
X42173287Y-16288061D03*
X75193287Y-8668061D03*
X82305287Y-17050061D03*
X259089287Y-20098061D03*
X14487287Y-58960061D03*
X42173287Y-10954061D03*
X118373287Y-16034061D03*
X255533287Y-23654061D03*
X44459287Y-10954061D03*
X121167287Y-16034061D03*
X17789287Y-12224061D03*
X17789287Y-15272061D03*
X38109406Y-11915634D03*
X12709287Y-16796061D03*
X39887287Y-8160061D03*
X39887287Y-4350061D03*
X41157287Y-5366061D03*
X41781787Y-32544061D03*
X32901715Y-50545741D03*
X30997287Y-8160061D03*
X24647287Y-33306061D03*
X25663287Y-68866061D03*
X23631287Y-88170061D03*
X23631287Y-35592061D03*
X117357287Y-13748061D03*
X23062698Y-4035472D03*
X51825287Y-12732061D03*
X92719287Y-13748061D03*
X2549287Y-19844061D03*
X2549287Y-14764061D03*
X49285287Y-74200061D03*
X92465287Y-7652061D03*
X10677287Y-14510061D03*
X121167287Y-15018061D03*
X10677287Y-12732061D03*
X49285287Y-71152061D03*
X55635287Y-1302061D03*
X51317287Y-9176061D03*
X5851287Y-13748061D03*
X16773287Y-13748061D03*
X8096250Y-64135000D03*
X34045287Y-6890061D03*
X59690000Y-39319845D03*
X39830598Y-43328561D03*
X79117081Y-38159580D03*
X39830598Y-38691673D03*
X73669287Y-16034061D03*
X33537287Y-51848061D03*
X121602500Y-50760253D03*
X31759287Y-18574061D03*
X25409287Y-58452061D03*
X134302500Y-56316497D03*
X30235287Y-23908061D03*
X159702500Y-51038302D03*
X32267287Y-52102061D03*
X31505287Y-53118061D03*
X178216771Y-52605728D03*
X29727287Y-27464061D03*
X196969123Y-52903377D03*
X30489287Y-31782061D03*
X30743287Y-53880061D03*
X26171287Y-34068061D03*
X213042566Y-55879934D03*
X26171287Y-57690061D03*
X232687887Y-55284613D03*
X26933287Y-36354061D03*
X26933287Y-56928061D03*
X27949287Y-38894061D03*
X27949287Y-56166061D03*
X254952500Y-51950767D03*
X28711287Y-55404061D03*
X260508750Y-51553887D03*
X28711287Y-41434061D03*
X29727287Y-54642061D03*
X261133750Y-50640666D03*
X29727287Y-43974061D03*
X42935287Y-13240061D03*
X42935287Y-19590061D03*
X3311287Y-16288061D03*
X3311287Y-20606061D03*
X57159287Y-14764061D03*
X60461287Y-14002061D03*
X159267287Y-12986061D03*
X159191287Y-16872061D03*
X209813287Y-16034061D03*
X209813287Y-13494061D03*
X249437287Y-14002061D03*
X249361287Y-16618061D03*
X257057287Y-23908061D03*
X263915287Y-20606061D03*
X266455287Y-70644061D03*
X266455287Y-64802061D03*
X250199287Y-71152061D03*
X248167287Y-72168061D03*
X205495287Y-70136061D03*
X205495287Y-72168061D03*
X164601287Y-70390061D03*
X164601287Y-72676061D03*
X124215287Y-72676061D03*
X124215287Y-70644061D03*
X91195287Y-70390061D03*
X91195287Y-72676061D03*
X16011287Y-58960061D03*
X17281287Y-74708061D03*
M02*
