%TF.GenerationSoftware,KiCad,Pcbnew,(6.0.7-1)-1*%
%TF.CreationDate,2022-08-17T08:35:13+02:00*%
%TF.ProjectId,plain60-flex-edition,706c6169-6e36-4302-9d66-6c65782d6564,rev?*%
%TF.SameCoordinates,Original*%
%TF.FileFunction,Other,Comment*%
%FSLAX46Y46*%
G04 Gerber Fmt 4.6, Leading zero omitted, Abs format (unit mm)*
G04 Created by KiCad (PCBNEW (6.0.7-1)-1) date 2022-08-17 08:35:13*
%MOMM*%
%LPD*%
G01*
G04 APERTURE LIST*
%ADD10C,0.152400*%
G04 APERTURE END LIST*
D10*
%TO.C,K19*%
X82550000Y-34925000D02*
X69850000Y-34925000D01*
X69850000Y-34925000D02*
X69850000Y-22225000D01*
X82550000Y-22225000D02*
X82550000Y-34925000D01*
X69850000Y-22225000D02*
X82550000Y-22225000D01*
%TO.C,K20*%
X101600000Y-34925000D02*
X88900000Y-34925000D01*
X88900000Y-34925000D02*
X88900000Y-22225000D01*
X88900000Y-22225000D02*
X101600000Y-22225000D01*
X101600000Y-22225000D02*
X101600000Y-34925000D01*
%TO.C,K23*%
X158750000Y-34925000D02*
X146050000Y-34925000D01*
X146050000Y-22225000D02*
X158750000Y-22225000D01*
X158750000Y-22225000D02*
X158750000Y-34925000D01*
X146050000Y-34925000D02*
X146050000Y-22225000D01*
%TO.C,K24*%
X177800000Y-34925000D02*
X165100000Y-34925000D01*
X177800000Y-22225000D02*
X177800000Y-34925000D01*
X165100000Y-34925000D02*
X165100000Y-22225000D01*
X165100000Y-22225000D02*
X177800000Y-22225000D01*
%TO.C,K17*%
X44450000Y-34925000D02*
X31750000Y-34925000D01*
X31750000Y-22225000D02*
X44450000Y-22225000D01*
X44450000Y-22225000D02*
X44450000Y-34925000D01*
X31750000Y-34925000D02*
X31750000Y-22225000D01*
%TO.C,K22*%
X127000000Y-22225000D02*
X139700000Y-22225000D01*
X139700000Y-34925000D02*
X127000000Y-34925000D01*
X139700000Y-22225000D02*
X139700000Y-34925000D01*
X127000000Y-34925000D02*
X127000000Y-22225000D01*
%TO.C,K21*%
X120650000Y-22225000D02*
X120650000Y-34925000D01*
X107950000Y-34925000D02*
X107950000Y-22225000D01*
X120650000Y-34925000D02*
X107950000Y-34925000D01*
X107950000Y-22225000D02*
X120650000Y-22225000D01*
%TO.C,K18*%
X50800000Y-34925000D02*
X50800000Y-22225000D01*
X50800000Y-22225000D02*
X63500000Y-22225000D01*
X63500000Y-22225000D02*
X63500000Y-34925000D01*
X63500000Y-34925000D02*
X50800000Y-34925000D01*
%TO.C,K16*%
X20637500Y-22225000D02*
X20637500Y-34925000D01*
X7937500Y-34925000D02*
X7937500Y-22225000D01*
X20637500Y-34925000D02*
X7937500Y-34925000D01*
X7937500Y-22225000D02*
X20637500Y-22225000D01*
%TO.C,K15*%
X260350000Y-15875000D02*
X260350000Y-3175000D01*
X273050000Y-3175000D02*
X273050000Y-15875000D01*
X260350000Y-3175000D02*
X273050000Y-3175000D01*
X273050000Y-15875000D02*
X260350000Y-15875000D01*
%TO.C,K8*%
X149225000Y-15875000D02*
X136525000Y-15875000D01*
X136525000Y-3175000D02*
X149225000Y-3175000D01*
X149225000Y-3175000D02*
X149225000Y-15875000D01*
X136525000Y-15875000D02*
X136525000Y-3175000D01*
%TO.C,K10*%
X174625000Y-15875000D02*
X174625000Y-3175000D01*
X187325000Y-15875000D02*
X174625000Y-15875000D01*
X174625000Y-3175000D02*
X187325000Y-3175000D01*
X187325000Y-3175000D02*
X187325000Y-15875000D01*
%TO.C,K14*%
X263525000Y-3175000D02*
X263525000Y-15875000D01*
X250825000Y-3175000D02*
X263525000Y-3175000D01*
X250825000Y-15875000D02*
X250825000Y-3175000D01*
X263525000Y-15875000D02*
X250825000Y-15875000D01*
%TO.C,K5*%
X92075000Y-15875000D02*
X79375000Y-15875000D01*
X79375000Y-3175000D02*
X92075000Y-3175000D01*
X79375000Y-15875000D02*
X79375000Y-3175000D01*
X92075000Y-3175000D02*
X92075000Y-15875000D01*
%TO.C,K13*%
X244475000Y-15875000D02*
X231775000Y-15875000D01*
X231775000Y-3175000D02*
X244475000Y-3175000D01*
X231775000Y-15875000D02*
X231775000Y-3175000D01*
X244475000Y-3175000D02*
X244475000Y-15875000D01*
%TO.C,K12*%
X212725000Y-15875000D02*
X212725000Y-3175000D01*
X225425000Y-15875000D02*
X212725000Y-15875000D01*
X225425000Y-3175000D02*
X225425000Y-15875000D01*
X212725000Y-3175000D02*
X225425000Y-3175000D01*
%TO.C,K11*%
X193675000Y-15875000D02*
X193675000Y-3175000D01*
X206375000Y-15875000D02*
X193675000Y-15875000D01*
X206375000Y-3175000D02*
X206375000Y-15875000D01*
X193675000Y-3175000D02*
X206375000Y-3175000D01*
%TO.C,K9*%
X168275000Y-3175000D02*
X168275000Y-15875000D01*
X155575000Y-15875000D02*
X155575000Y-3175000D01*
X155575000Y-3175000D02*
X168275000Y-3175000D01*
X168275000Y-15875000D02*
X155575000Y-15875000D01*
%TO.C,K7*%
X117475000Y-3175000D02*
X130175000Y-3175000D01*
X130175000Y-3175000D02*
X130175000Y-15875000D01*
X130175000Y-15875000D02*
X117475000Y-15875000D01*
X117475000Y-15875000D02*
X117475000Y-3175000D01*
%TO.C,K6*%
X98425000Y-15875000D02*
X98425000Y-3175000D01*
X98425000Y-3175000D02*
X111125000Y-3175000D01*
X111125000Y-3175000D02*
X111125000Y-15875000D01*
X111125000Y-15875000D02*
X98425000Y-15875000D01*
%TO.C,K4*%
X73025000Y-15875000D02*
X60325000Y-15875000D01*
X60325000Y-15875000D02*
X60325000Y-3175000D01*
X73025000Y-3175000D02*
X73025000Y-15875000D01*
X60325000Y-3175000D02*
X73025000Y-3175000D01*
%TO.C,K2*%
X34925000Y-3175000D02*
X34925000Y-15875000D01*
X22225000Y-15875000D02*
X22225000Y-3175000D01*
X22225000Y-3175000D02*
X34925000Y-3175000D01*
X34925000Y-15875000D02*
X22225000Y-15875000D01*
%TO.C,K1*%
X3175000Y-15875000D02*
X3175000Y-3175000D01*
X15875000Y-15875000D02*
X3175000Y-15875000D01*
X15875000Y-3175000D02*
X15875000Y-15875000D01*
X3175000Y-3175000D02*
X15875000Y-3175000D01*
%TO.C,K3*%
X53975000Y-3175000D02*
X53975000Y-15875000D01*
X41275000Y-3175000D02*
X53975000Y-3175000D01*
X53975000Y-15875000D02*
X41275000Y-15875000D01*
X41275000Y-15875000D02*
X41275000Y-3175000D01*
%TO.C,K62-1*%
X44450000Y-79375000D02*
X44450000Y-92075000D01*
X31750000Y-92075000D02*
X31750000Y-79375000D01*
X44450000Y-92075000D02*
X31750000Y-92075000D01*
X31750000Y-79375000D02*
X44450000Y-79375000D01*
%TO.C,K71*%
X196056250Y-79375000D02*
X208756250Y-79375000D01*
X208756250Y-92075000D02*
X196056250Y-92075000D01*
X208756250Y-79375000D02*
X208756250Y-92075000D01*
X196056250Y-92075000D02*
X196056250Y-79375000D01*
%TO.C,K53*%
X153987500Y-60325000D02*
X153987500Y-73025000D01*
X153987500Y-73025000D02*
X141287500Y-73025000D01*
X141287500Y-73025000D02*
X141287500Y-60325000D01*
X141287500Y-60325000D02*
X153987500Y-60325000D01*
%TO.C,K58-1*%
X243681460Y-73025056D02*
X243681460Y-60325056D01*
X243681460Y-60325056D02*
X256381460Y-60325056D01*
X256381460Y-60325056D02*
X256381460Y-73025056D01*
X256381460Y-73025056D02*
X243681460Y-73025056D01*
%TO.C,K57*%
X217487500Y-60325000D02*
X230187500Y-60325000D01*
X230187500Y-73025000D02*
X217487500Y-73025000D01*
X217487500Y-73025000D02*
X217487500Y-60325000D01*
X230187500Y-60325000D02*
X230187500Y-73025000D01*
%TO.C,K54*%
X173037500Y-73025000D02*
X160337500Y-73025000D01*
X173037500Y-60325000D02*
X173037500Y-73025000D01*
X160337500Y-73025000D02*
X160337500Y-60325000D01*
X160337500Y-60325000D02*
X173037500Y-60325000D01*
%TO.C,K56*%
X198437500Y-73025000D02*
X198437500Y-60325000D01*
X198437500Y-60325000D02*
X211137500Y-60325000D01*
X211137500Y-60325000D02*
X211137500Y-73025000D01*
X211137500Y-73025000D02*
X198437500Y-73025000D01*
%TO.C,K52*%
X134937500Y-60325000D02*
X134937500Y-73025000D01*
X134937500Y-73025000D02*
X122237500Y-73025000D01*
X122237500Y-60325000D02*
X134937500Y-60325000D01*
X122237500Y-73025000D02*
X122237500Y-60325000D01*
%TO.C,K55*%
X192087500Y-73025000D02*
X179387500Y-73025000D01*
X179387500Y-60325000D02*
X192087500Y-60325000D01*
X192087500Y-60325000D02*
X192087500Y-73025000D01*
X179387500Y-73025000D02*
X179387500Y-60325000D01*
%TO.C,K61-1*%
X20637500Y-92075000D02*
X7937500Y-92075000D01*
X7937500Y-79375000D02*
X20637500Y-79375000D01*
X7937500Y-92075000D02*
X7937500Y-79375000D01*
X20637500Y-79375000D02*
X20637500Y-92075000D01*
%TO.C,K15-1*%
X282575000Y-15875000D02*
X269875000Y-15875000D01*
X269875000Y-15875000D02*
X269875000Y-3175000D01*
X282575000Y-3175000D02*
X282575000Y-15875000D01*
X269875000Y-3175000D02*
X282575000Y-3175000D01*
%TO.C,K74*%
X280193750Y-92075072D02*
X267493750Y-92075072D01*
X267493750Y-92075072D02*
X267493750Y-79375072D01*
X267493750Y-79375072D02*
X280193750Y-79375072D01*
X280193750Y-79375072D02*
X280193750Y-92075072D01*
%TO.C,K73*%
X243681250Y-92075000D02*
X243681250Y-79375000D01*
X243681250Y-79375000D02*
X256381250Y-79375000D01*
X256381250Y-79375000D02*
X256381250Y-92075000D01*
X256381250Y-92075000D02*
X243681250Y-92075000D01*
%TO.C,K28*%
X254000000Y-22225000D02*
X254000000Y-34925000D01*
X241300000Y-34925000D02*
X241300000Y-22225000D01*
X254000000Y-34925000D02*
X241300000Y-34925000D01*
X241300000Y-22225000D02*
X254000000Y-22225000D01*
%TO.C,K48*%
X58737500Y-60325000D02*
X58737500Y-73025000D01*
X46037500Y-60325000D02*
X58737500Y-60325000D01*
X46037500Y-73025000D02*
X46037500Y-60325000D01*
X58737500Y-73025000D02*
X46037500Y-73025000D01*
%TO.C,K25*%
X196850000Y-34925000D02*
X184150000Y-34925000D01*
X184150000Y-34925000D02*
X184150000Y-22225000D01*
X184150000Y-22225000D02*
X196850000Y-22225000D01*
X196850000Y-22225000D02*
X196850000Y-34925000D01*
%TO.C,K36*%
X125412500Y-53975000D02*
X112712500Y-53975000D01*
X112712500Y-53975000D02*
X112712500Y-41275000D01*
X125412500Y-41275000D02*
X125412500Y-53975000D01*
X112712500Y-41275000D02*
X125412500Y-41275000D01*
%TO.C,K33*%
X55562500Y-53975000D02*
X55562500Y-41275000D01*
X55562500Y-41275000D02*
X68262500Y-41275000D01*
X68262500Y-53975000D02*
X55562500Y-53975000D01*
X68262500Y-41275000D02*
X68262500Y-53975000D01*
%TO.C,K63*%
X65881250Y-92075000D02*
X53181250Y-92075000D01*
X65881250Y-79375000D02*
X65881250Y-92075000D01*
X53181250Y-79375000D02*
X65881250Y-79375000D01*
X53181250Y-92075000D02*
X53181250Y-79375000D01*
%TO.C,K44*%
X257968750Y-41275000D02*
X270668750Y-41275000D01*
X270668750Y-53975000D02*
X257968750Y-53975000D01*
X257968750Y-53975000D02*
X257968750Y-41275000D01*
X270668750Y-41275000D02*
X270668750Y-53975000D01*
%TO.C,K72*%
X219868750Y-79375000D02*
X232568750Y-79375000D01*
X219868750Y-92075000D02*
X219868750Y-79375000D01*
X232568750Y-79375000D02*
X232568750Y-92075000D01*
X232568750Y-92075000D02*
X219868750Y-92075000D01*
%TO.C,K59*%
X282575000Y-73025000D02*
X269875000Y-73025000D01*
X282575000Y-60325000D02*
X282575000Y-73025000D01*
X269875000Y-60325000D02*
X282575000Y-60325000D01*
X269875000Y-73025000D02*
X269875000Y-60325000D01*
%TO.C,K39*%
X169862500Y-53975000D02*
X169862500Y-41275000D01*
X182562500Y-53975000D02*
X169862500Y-53975000D01*
X182562500Y-41275000D02*
X182562500Y-53975000D01*
X169862500Y-41275000D02*
X182562500Y-41275000D01*
%TO.C,K61*%
X18256250Y-79375000D02*
X18256250Y-92075000D01*
X18256250Y-92075000D02*
X5556250Y-92075000D01*
X5556250Y-92075000D02*
X5556250Y-79375000D01*
X5556250Y-79375000D02*
X18256250Y-79375000D01*
%TO.C,K29*%
X277812500Y-34925000D02*
X265112500Y-34925000D01*
X277812500Y-22225000D02*
X277812500Y-34925000D01*
X265112500Y-22225000D02*
X277812500Y-22225000D01*
X265112500Y-34925000D02*
X265112500Y-22225000D01*
%TO.C,K27*%
X222250000Y-34925000D02*
X222250000Y-22225000D01*
X234950000Y-34925000D02*
X222250000Y-34925000D01*
X234950000Y-22225000D02*
X234950000Y-34925000D01*
X222250000Y-22225000D02*
X234950000Y-22225000D01*
%TO.C,K63-1*%
X55562500Y-79375000D02*
X68262500Y-79375000D01*
X68262500Y-79375000D02*
X68262500Y-92075000D01*
X55562500Y-92075000D02*
X55562500Y-79375000D01*
X68262500Y-92075000D02*
X55562500Y-92075000D01*
%TO.C,K50*%
X96837500Y-60325000D02*
X96837500Y-73025000D01*
X96837500Y-73025000D02*
X84137500Y-73025000D01*
X84137500Y-73025000D02*
X84137500Y-60325000D01*
X84137500Y-60325000D02*
X96837500Y-60325000D01*
%TO.C,K34*%
X87312500Y-41275000D02*
X87312500Y-53975000D01*
X74612500Y-41275000D02*
X87312500Y-41275000D01*
X74612500Y-53975000D02*
X74612500Y-41275000D01*
X87312500Y-53975000D02*
X74612500Y-53975000D01*
%TO.C,K47*%
X26987500Y-60325000D02*
X39687500Y-60325000D01*
X39687500Y-60325000D02*
X39687500Y-73025000D01*
X39687500Y-73025000D02*
X26987500Y-73025000D01*
X26987500Y-73025000D02*
X26987500Y-60325000D01*
%TO.C,K43*%
X246062500Y-41275000D02*
X258762500Y-41275000D01*
X246062500Y-53975000D02*
X246062500Y-41275000D01*
X258762500Y-53975000D02*
X246062500Y-53975000D01*
X258762500Y-41275000D02*
X258762500Y-53975000D01*
%TO.C,K38*%
X150812500Y-53975000D02*
X150812500Y-41275000D01*
X163512500Y-41275000D02*
X163512500Y-53975000D01*
X163512500Y-53975000D02*
X150812500Y-53975000D01*
X150812500Y-41275000D02*
X163512500Y-41275000D01*
%TO.C,K35*%
X93662500Y-41275000D02*
X106362500Y-41275000D01*
X106362500Y-41275000D02*
X106362500Y-53975000D01*
X106362500Y-53975000D02*
X93662500Y-53975000D01*
X93662500Y-53975000D02*
X93662500Y-41275000D01*
%TO.C,K32*%
X10318750Y-53975000D02*
X10318750Y-41275000D01*
X10318750Y-41275000D02*
X23018750Y-41275000D01*
X23018750Y-41275000D02*
X23018750Y-53975000D01*
X23018750Y-53975000D02*
X10318750Y-53975000D01*
%TO.C,K40*%
X188912500Y-53975000D02*
X188912500Y-41275000D01*
X188912500Y-41275000D02*
X201612500Y-41275000D01*
X201612500Y-53975000D02*
X188912500Y-53975000D01*
X201612500Y-41275000D02*
X201612500Y-53975000D01*
%TO.C,K46*%
X27781250Y-60325000D02*
X27781250Y-73025000D01*
X15081250Y-73025000D02*
X15081250Y-60325000D01*
X15081250Y-60325000D02*
X27781250Y-60325000D01*
X27781250Y-73025000D02*
X15081250Y-73025000D01*
%TO.C,K42*%
X239712500Y-53975000D02*
X227012500Y-53975000D01*
X227012500Y-53975000D02*
X227012500Y-41275000D01*
X227012500Y-41275000D02*
X239712500Y-41275000D01*
X239712500Y-41275000D02*
X239712500Y-53975000D01*
%TO.C,K41*%
X220662500Y-41275000D02*
X220662500Y-53975000D01*
X207962500Y-53975000D02*
X207962500Y-41275000D01*
X220662500Y-53975000D02*
X207962500Y-53975000D01*
X207962500Y-41275000D02*
X220662500Y-41275000D01*
%TO.C,K26*%
X215900000Y-22225000D02*
X215900000Y-34925000D01*
X215900000Y-34925000D02*
X203200000Y-34925000D01*
X203200000Y-34925000D02*
X203200000Y-22225000D01*
X203200000Y-22225000D02*
X215900000Y-22225000D01*
%TO.C,K37*%
X131762500Y-41275000D02*
X144462500Y-41275000D01*
X144462500Y-41275000D02*
X144462500Y-53975000D01*
X144462500Y-53975000D02*
X131762500Y-53975000D01*
X131762500Y-53975000D02*
X131762500Y-41275000D01*
%TO.C,K51*%
X115887500Y-73025000D02*
X103187500Y-73025000D01*
X103187500Y-73025000D02*
X103187500Y-60325000D01*
X115887500Y-60325000D02*
X115887500Y-73025000D01*
X103187500Y-60325000D02*
X115887500Y-60325000D01*
%TO.C,K73-1*%
X254000000Y-92075000D02*
X241300000Y-92075000D01*
X254000000Y-79375000D02*
X254000000Y-92075000D01*
X241300000Y-92075000D02*
X241300000Y-79375000D01*
X241300000Y-79375000D02*
X254000000Y-79375000D01*
%TO.C,K62*%
X29368750Y-92075000D02*
X29368750Y-79375000D01*
X29368750Y-79375000D02*
X42068750Y-79375000D01*
X42068750Y-92075000D02*
X29368750Y-92075000D01*
X42068750Y-79375000D02*
X42068750Y-92075000D01*
%TO.C,K49*%
X77787500Y-73025000D02*
X65087500Y-73025000D01*
X65087500Y-60325000D02*
X77787500Y-60325000D01*
X65087500Y-73025000D02*
X65087500Y-60325000D01*
X77787500Y-60325000D02*
X77787500Y-73025000D01*
%TO.C,K72-1*%
X217487500Y-92075000D02*
X217487500Y-79375000D01*
X230187500Y-92075000D02*
X217487500Y-92075000D01*
X217487500Y-79375000D02*
X230187500Y-79375000D01*
X230187500Y-79375000D02*
X230187500Y-92075000D01*
%TO.C,K74-1*%
X277812728Y-92075072D02*
X265112728Y-92075072D01*
X265112728Y-92075072D02*
X265112728Y-79375072D01*
X277812728Y-79375072D02*
X277812728Y-92075072D01*
X265112728Y-79375072D02*
X277812728Y-79375072D01*
%TO.C,K58*%
X253206468Y-60325000D02*
X265906468Y-60325000D01*
X265906468Y-60325000D02*
X265906468Y-73025000D01*
X265906468Y-73025000D02*
X253206468Y-73025000D01*
X253206468Y-73025000D02*
X253206468Y-60325000D01*
%TO.C,K67*%
X124618750Y-79375000D02*
X137318750Y-79375000D01*
X137318750Y-92075000D02*
X124618750Y-92075000D01*
X124618750Y-92075000D02*
X124618750Y-79375000D01*
X137318750Y-79375000D02*
X137318750Y-92075000D01*
%TO.C,K67-1*%
X136525000Y-92075000D02*
X136525000Y-79375000D01*
X149225000Y-92075000D02*
X136525000Y-92075000D01*
X149225000Y-79375000D02*
X149225000Y-92075000D01*
X136525000Y-79375000D02*
X149225000Y-79375000D01*
%TO.C,K44-1*%
X280193980Y-44450000D02*
X267493980Y-44450000D01*
X267493980Y-44450000D02*
X267493980Y-31750000D01*
X267493980Y-31750000D02*
X280193980Y-31750000D01*
X280193980Y-31750000D02*
X280193980Y-44450000D01*
%TO.C,K31-1*%
X5556250Y-53975000D02*
X5556250Y-41275000D01*
X5556250Y-41275000D02*
X18256250Y-41275000D01*
X18256250Y-41275000D02*
X18256250Y-53975000D01*
X18256250Y-53975000D02*
X5556250Y-53975000D01*
%TO.C,K31*%
X49212500Y-41275000D02*
X49212500Y-53975000D01*
X36512500Y-53975000D02*
X36512500Y-41275000D01*
X49212500Y-53975000D02*
X36512500Y-53975000D01*
X36512500Y-41275000D02*
X49212500Y-41275000D01*
%TD*%
M02*
