%TF.GenerationSoftware,KiCad,Pcbnew,(6.0.7-1)-1*%
%TF.CreationDate,2022-08-17T08:35:13+02:00*%
%TF.ProjectId,plain60-flex-edition,706c6169-6e36-4302-9d66-6c65782d6564,rev?*%
%TF.SameCoordinates,Original*%
%TF.FileFunction,Profile,NP*%
%FSLAX46Y46*%
G04 Gerber Fmt 4.6, Leading zero omitted, Abs format (unit mm)*
G04 Created by KiCad (PCBNEW (6.0.7-1)-1) date 2022-08-17 08:35:13*
%MOMM*%
%LPD*%
G01*
G04 APERTURE LIST*
%TA.AperFunction,Profile*%
%ADD10C,0.100000*%
%TD*%
G04 APERTURE END LIST*
D10*
X237625192Y-19550192D02*
G75*
G03*
X237625192Y-18550008I8J500092D01*
G01*
X15825008Y-94725008D02*
G75*
G03*
X9525008Y-94725008I-3150000J-734500D01*
G01*
X48126422Y-18550064D02*
G75*
G03*
X48126422Y-19550136I-22J-500036D01*
G01*
X88908052Y-75089621D02*
G75*
G03*
X90115786Y-75700068I1207748J889521D01*
G01*
X88105652Y-75686411D02*
G75*
G03*
X90115786Y-76700063I2010148J1486311D01*
G01*
X96325006Y-94725008D02*
X15825008Y-94725008D01*
X203273179Y-75091894D02*
G75*
G03*
X200056947Y-73470061I-3216279J-2378206D01*
G01*
X76508604Y-76700081D02*
G75*
G03*
X78518758Y-75686427I-4J2499981D01*
G01*
X183125008Y-94725006D02*
X102625008Y-94725006D01*
X176584611Y-75700088D02*
G75*
G03*
X177789524Y-75093476I-11J1499988D01*
G01*
X189424993Y-94725011D02*
G75*
G03*
X183125008Y-94725006I-3149993J-734489D01*
G01*
X525008Y-2525008D02*
X525008Y-92725008D01*
X102625008Y-525008D02*
X183125008Y-525008D01*
X203273219Y-75091865D02*
G75*
G03*
X204479287Y-75700059I1206081J891765D01*
G01*
X269924782Y-525064D02*
G75*
G03*
X276225231Y-525009I3150218J734564D01*
G01*
X181006946Y-74470069D02*
X200056946Y-74470064D01*
X7525008Y-525008D02*
G75*
G03*
X13825008Y-525008I3150000J734500D01*
G01*
X285224993Y-2525007D02*
G75*
G03*
X283225008Y-525007I-1999993J7D01*
G01*
X269925008Y-94725006D02*
X189425008Y-94725008D01*
X48126422Y-19550136D02*
X237625192Y-19550136D01*
X43363195Y-75700064D02*
X76508604Y-75700064D01*
X276224993Y-94725011D02*
G75*
G03*
X269925008Y-94725006I-3149993J-734489D01*
G01*
X176584612Y-76700087D02*
G75*
G03*
X178594765Y-75686429I-12J2499987D01*
G01*
X283225008Y-94725008D02*
G75*
G03*
X285225008Y-92725008I-8J2000008D01*
G01*
X181006946Y-73470067D02*
X200056947Y-73470061D01*
X283225008Y-94725008D02*
X276225008Y-94725008D01*
X181006946Y-73470119D02*
G75*
G03*
X177789524Y-75093476I-46J-3999981D01*
G01*
X43363195Y-76700064D02*
X76508604Y-76700063D01*
X176584611Y-75700064D02*
X90115786Y-75700069D01*
X80930946Y-73470115D02*
G75*
G03*
X77714697Y-75091882I-46J-3999985D01*
G01*
X285225008Y-92725008D02*
X285225008Y-2525007D01*
X181006946Y-74470120D02*
G75*
G03*
X178594765Y-75686429I-46J-2999980D01*
G01*
X202469151Y-75686414D02*
G75*
G03*
X204479287Y-76700066I2010149J1486314D01*
G01*
X525013Y-92725008D02*
G75*
G03*
X2525007Y-94725007I1999997J-2D01*
G01*
X80930946Y-74470063D02*
X85693446Y-74470064D01*
X102625008Y-94725008D02*
G75*
G03*
X96325006Y-94725008I-3150001J-734500D01*
G01*
X80930946Y-74470115D02*
G75*
G03*
X78518759Y-75686428I-46J-2999985D01*
G01*
X232862718Y-75700000D02*
X204479287Y-75700060D01*
X9525008Y-94725008D02*
X2525007Y-94725008D01*
X202469114Y-75686441D02*
G75*
G03*
X200056946Y-74470064I-2412214J-1783659D01*
G01*
X183124992Y-525012D02*
G75*
G03*
X189425008Y-525010I3150008J734512D01*
G01*
X76508604Y-75700081D02*
G75*
G03*
X77714696Y-75091882I-4J1499981D01*
G01*
X232862718Y-76700000D02*
G75*
G03*
X232862718Y-75700000I-18J500000D01*
G01*
X88105613Y-75686440D02*
G75*
G03*
X85693446Y-74470064I-2412213J-1783660D01*
G01*
X189425008Y-525010D02*
X269924797Y-525059D01*
X276225231Y-525009D02*
X283225008Y-525010D01*
X2525008Y-525008D02*
G75*
G03*
X525008Y-2525008I-1J-1999999D01*
G01*
X237625192Y-18550008D02*
X48126422Y-18550136D01*
X88908014Y-75089649D02*
G75*
G03*
X85693446Y-73470064I-3214614J-2380451D01*
G01*
X96325008Y-525008D02*
G75*
G03*
X102625008Y-525008I3150000J734500D01*
G01*
X232862718Y-76700000D02*
X204479287Y-76700066D01*
X80930946Y-73470063D02*
X85693446Y-73470064D01*
X43363195Y-75700136D02*
G75*
G03*
X43363195Y-76700064I5J-499964D01*
G01*
X90115786Y-76700064D02*
X176584612Y-76700064D01*
X2525008Y-525008D02*
X7525008Y-525008D01*
X13825008Y-525008D02*
X96325008Y-525008D01*
M02*
